<svg xmlns="http://www.w3.org/2000/svg" width="600" height="340" viewBox="0 0 600 340" role="img" aria-label="GitHub overview: 92 contributions in the last 12 months, active on 18 days">
<title>GitHub overview: 92 contributions in the last 12 months, active on 18 days</title>
<style>
.spin{animation:spin 1.6s linear infinite;transform-box:fill-box;transform-origin:center}
.tw{animation:tw ease-in-out infinite alternate}
.fade{opacity:0;animation:fadeUp .8s ease-out forwards}
.pulse{animation:pulse 1.6s ease-in-out infinite;transform-box:fill-box;transform-origin:center}
.flk{animation:flk 2.4s ease-in-out infinite alternate}
.petal{animation:fall linear infinite;transform-box:fill-box;transform-origin:center}
@keyframes spin{to{transform:rotate(360deg)}}
@keyframes tw{from{opacity:.12}to{opacity:.95}}
@keyframes fadeUp{from{opacity:0;transform:translateY(8px)}to{opacity:1;transform:none}}
@keyframes pulse{0%,100%{opacity:1;transform:scale(1)}50%{opacity:.35;transform:scale(.7)}}
@keyframes flk{0%{opacity:.5}40%{opacity:1}70%{opacity:.7}100%{opacity:.95}}
@keyframes fall{from{transform:translate(0,0) rotate(0deg)}to{transform:translate(-260px,820px) rotate(600deg)}}
@media (prefers-reduced-motion:reduce){*{animation:none!important}.fade{opacity:1}}</style>
<defs><path id="m11" d="M303 16Q217 16 158-29Q98-74 67-157Q36-240 36-354Q36-469 67-552Q98-635 158-680Q217-726 303-726Q400-726 467-662Q533-598 554-483L444-477Q429-551 392-589Q354-628 303-628Q251-628 216-596Q181-564 163-503Q145-442 145-354Q145-267 163-206Q181-146 216-114Q251-82 303-82Q358-82 397-124Q436-166 449-247L558-242Q540-120 473-52Q406 16 303 16"/><path id="m35" d="M300 16Q215 16 157-27Q98-70 67-153Q36-236 36-354Q36-474 67-557Q98-640 157-683Q215-726 300-726Q385-726 444-683Q503-640 534-557Q564-474 564-354Q564-236 534-153Q503-70 444-27Q385 16 300 16M300-82Q350-82 385-112Q419-142 437-203Q455-264 455-354Q455-444 437-505Q419-567 385-597Q350-628 300-628Q250-628 216-597Q181-567 163-505Q145-444 145-354Q145-264 163-203Q181-142 216-112Q250-82 300-82"/><path id="m32" d="M340-86L260-86L149-548L149 0L48 0L48-710L188-710L300-253L412-710L552-710L552 0L451 0L451-548"/><path id="m23" d="M522 0L78 0L78-99L248-99L248-611L78-611L78-710L522-710L522-611L352-611L352-99L522-99"/><path id="m48" d="M352 0L248 0L248-611L40-611L40-710L560-710L560-611L352-611"/><path id="m47" d="M309 16Q232 16 175-15Q117-46 83-101Q49-157 43-231L151-238Q158-187 179-152Q200-117 234-99Q268-82 313-82Q357-82 387-93Q417-105 433-127Q449-149 449-181Q449-213 434-236Q419-259 380-278Q341-298 266-319Q193-339 147-364Q101-390 80-427Q59-465 59-520Q59-581 88-627Q116-674 170-700Q223-726 298-726Q372-726 425-697Q477-668 508-616Q538-565 545-496L437-490Q432-531 415-562Q397-593 367-610Q337-628 295-628Q236-628 202-600Q167-572 167-525Q167-495 181-474Q195-454 230-438Q265-423 328-405Q413-382 463-351Q513-321 535-280Q557-239 557-181Q557-123 526-78Q495-33 440-8Q384 16 309 16"/><path id="d64" d="M300 14Q220 14 159-10Q97-34 63-79Q28-125 28-187L28-199Q28-247 45-278Q62-310 88-328Q113-346 136-353L136-371Q113-379 90-397Q67-415 53-445Q38-475 38-517L38-529Q38-584 71-625Q103-667 162-690Q221-714 300-714Q379-714 438-690Q497-667 530-625Q562-584 562-529L562-517Q562-475 548-445Q533-415 511-397Q488-379 464-371L464-353Q488-346 513-328Q538-310 555-278Q572-247 572-199L572-187Q572-125 538-79Q503-34 442-10Q380 14 300 14M300-100Q369-100 407-126Q444-153 444-197L444-205Q444-249 408-275Q371-302 300-302Q230-302 193-275Q156-249 156-205L156-197Q156-153 194-126Q231-100 300-100M300-416Q364-416 399-439Q434-462 434-504L434-512Q434-554 398-577Q362-600 300-600Q238-600 202-577Q166-554 166-512L166-504Q166-462 201-439Q236-416 300-416"/><path id="d58" d="M550 0L42 0L42-84Q42-157 66-205Q90-254 136-285Q181-317 247-337L314-358Q351-370 376-387Q401-405 415-430Q428-455 428-487L428-491Q428-541 394-570Q360-600 301-600Q243-600 208-568Q172-537 172-478L172-460L44-460L44-476Q44-552 78-605Q112-658 171-686Q229-714 301-714Q373-714 431-686Q489-659 523-609Q556-560 556-493L556-483Q556-416 529-369Q501-323 454-293Q407-264 347-245L283-225Q240-212 216-196Q192-181 183-162Q173-144 173-118L173-114L550-114"/><path id="m1" d="M133 0L24 0L232-710L368-710L576 0L467 0L416-185L184-185L133 0M211-282L389-282L300-601"/><path id="m54" d="M362 0L238 0L27-710L138-710L300-141L462-710L573-710"/><path id="m15" d="M532 0L88 0L88-710L524-710L524-611L193-611L193-404L512-404L512-308L193-308L193-99L532-99"/><path id="m13" d="M256 0L83 0L83-710L256-710Q350-710 420-668Q489-627 527-547Q564-468 564-354Q564-240 527-161Q489-82 420-41Q350 0 256 0M188-611L188-99L253-99Q350-99 403-162Q455-226 455-354Q455-482 403-546Q350-611 253-611"/><path id="m57" d="M353 0L248 0L248-292L37-710L153-710L300-400L447-710L563-710L353-292"/><path id="d57" d="M386 0L258 0L258-606L240-606L146-384L12-384L155-700L386-700"/><path id="m43" d="M191 0L86 0L86-710L306-710Q380-710 436-683Q491-656 522-606Q552-557 552-489Q552-421 522-371Q491-322 436-295Q380-269 306-269L191-269L191 0M191-611L191-368L295-368Q371-368 407-399Q443-430 443-489Q443-549 407-580Q371-611 295-611"/><path id="m49" d="M300 16Q186 16 122-54Q58-124 58-247L58-710L163-710L163-243Q163-165 198-123Q233-82 300-82Q367-82 402-123Q437-165 437-243L437-710L542-710L542-247Q542-124 478-54Q414 16 300 16"/><path id="m10" d="M313 0L83 0L83-710L289-710Q406-710 467-659Q528-608 528-517Q528-473 508-438Q488-404 450-384Q426-371 397-366Q437-361 468-347Q512-325 535-286Q558-248 558-197Q558-103 494-51Q429 0 313 0M188-312L188-98L314-98Q383-98 416-125Q449-153 449-202Q449-254 415-283Q380-312 314-312L188-312M188-612L188-409L291-409Q357-409 388-435Q419-462 419-510Q419-559 388-585Q357-612 291-612"/><path id="m31" d="M542 0L98 0L98-710L203-710L203-99L542-99"/><path id="m46" d="M172 0L67 0L67-710L288-710Q401-710 466-653Q530-596 530-498Q530-447 508-408Q485-369 449-347Q430-336 410-329Q452-321 478-301Q514-270 520-202L538 0L433 0L417-182Q414-217 402-238Q390-259 365-268Q340-277 296-277L172-277L172 0M172-611L172-375L286-375Q352-375 387-406Q422-437 422-493Q422-550 387-580Q352-611 286-611"/><path id="d56" d="M324 14Q200 14 125-54Q50-123 50-262L50-438Q50-573 125-643Q200-714 324-714Q449-714 524-643Q598-573 598-438L598-262Q598-123 524-54Q449 14 324 14M324-100Q399-100 435-141Q470-182 470-258L470-444Q470-521 431-560Q391-600 324-600Q255-600 217-559Q178-518 178-444L178-258Q178-179 215-139Q251-100 324-100"/><path id="m33" d="M171 0L68 0L68-710L196-710L429-150L429-710L532-710L532 0L404 0L171-560"/><path id="m30" d="M161 0L56 0L56-710L161-710L161-376L427-710L554-710L301-398L562 0L439 0L234-317L161-226"/><path id="d33" d="M270 14Q211 14 160-15Q108-45 77-102Q46-159 46-240L46-256Q46-337 77-394Q108-451 159-480Q210-510 270-510Q315-510 346-499Q376-489 395-473Q414-457 424-439L442-439L442-700L568-700L568 0L444 0L444-60L426-60Q409-32 374-9Q338 14 270 14M308-96Q366-96 405-133Q444-171 444-243L444-253Q444-325 406-362Q367-400 308-400Q250-400 211-362Q172-325 172-253L172-243Q172-171 211-133Q250-96 308-96"/><path id="m21" d="M299 16Q222 16 163-26Q104-68 70-150Q36-233 36-354Q36-469 68-552Q100-635 160-680Q219-726 302-726Q369-726 420-697Q471-668 506-615Q540-562 555-491L446-484Q431-549 396-588Q360-627 303-627Q253-627 218-595Q182-564 164-503Q145-442 145-354Q145-267 164-206Q183-146 220-114Q256-83 308-83Q354-83 387-106Q420-130 439-172Q457-215 459-271L303-271L303-362L556-362L556 0L471 0L468-92Q463-82 458-72Q433-31 394-7Q355 16 299 16"/><path id="d59" d="M304 14Q225 14 164-14Q103-42 69-94Q34-147 34-219L34-237L162-237L162-223Q162-167 201-133Q240-100 304-100Q369-100 405-131Q440-162 440-209L440-219Q440-251 424-271Q408-291 381-300Q354-310 320-310L180-310L180-450L406-570L406-586L52-586L52-700L548-700L548-530L337-418L337-402L374-402Q421-402 466-383Q510-364 539-324Q568-285 568-222L568-210Q568-142 535-91Q502-41 443-13Q383 14 304 14"/><path id="d62" d="M312 14Q232 14 173-16Q114-46 82-99Q50-152 50-221L50-460Q50-545 85-601Q119-658 180-686Q240-714 318-714Q396-714 454-688Q511-662 543-613Q574-564 574-496L444-496Q444-538 415-569Q386-600 318-600Q251-600 215-565Q178-530 178-468L178-396L196-396Q213-416 248-434Q283-452 350-452Q411-452 463-426Q514-400 546-350Q578-301 578-231L578-219Q578-150 545-97Q512-45 452-15Q392 14 312 14M314-100Q377-100 414-133Q450-166 450-221L450-229Q450-266 434-293Q417-320 387-335Q356-350 314-350Q273-350 242-335Q211-320 195-293Q178-266 178-229L178-221Q178-166 215-133Q251-100 314-100"/><path id="m22" d="M161 0L56 0L56-710L161-710L161-406L439-406L439-710L544-710L544 0L439 0L439-308L161-308"/><path id="m55" d="M241 0L104 0L28-710L133-710L187-138L254-630L346-630L413-138L467-710L572-710L496 0L359 0L300-432"/><path id="m126" d="M544 0L56 0L56-99L273-99L273-506L91-506L91-595L181-595Q220-595 244-606Q268-618 279-643Q290-668 290-710L378-710L378-99L544-99"/><path id="m127" d="M552 0L48 0Q48-79 71-141Q94-203 153-257Q211-312 315-367Q360-390 388-411Q416-432 429-456Q442-480 442-514Q442-549 428-574Q414-599 386-613Q358-628 316-628Q248-628 210-592Q171-556 161-489L52-496Q63-601 131-663Q199-726 316-726Q392-726 445-700Q497-674 524-627Q551-580 551-518Q551-463 533-423Q515-383 473-349Q431-315 358-276Q297-243 257-211Q216-180 196-151Q175-123 173-99L552-99"/><path id="d65" d="M300 14Q222 14 165-12Q107-38 76-87Q44-136 44-204L174-204Q174-162 204-131Q233-100 300-100Q368-100 404-135Q440-171 440-232L440-304L422-304Q405-284 371-266Q336-248 268-248Q208-248 156-274Q104-300 72-349Q40-399 40-469L40-481Q40-551 73-603Q106-655 166-684Q226-714 306-714Q386-714 445-684Q504-654 536-601Q568-548 568-479L568-240Q568-155 534-98Q499-42 439-14Q378 14 300 14M304-350Q346-350 377-365Q407-380 424-407Q440-434 440-471L440-479Q440-535 404-567Q367-600 304-600Q241-600 205-567Q168-535 168-479L168-471Q168-434 185-407Q201-380 232-365Q263-350 304-350"/><path id="sm34" d="M22 0L139 0L203-184L492-184L556 0L673 0L417-710L278-710M237-284L348-605L458-284"/><path id="sm68" d="M419-344L531-350C517-469 415-542 297-542C144-542 44-434 44-265C44-96 144 12 297 12C419 12 519-65 535-189L422-195C411-122 360-81 297-81C207-81 156-150 156-265C156-380 207-449 297-449C357-449 409-410 419-344"/><path id="sm85" d="M130-650L130-530L50-530L50-442L130-442L130-153C130-53 186 0 289 0L378 0L378-88L299-88C259-88 238-110 238-153L238-442L379-442L379-530L238-530L238-650"/><path id="sm74" d="M75-530L75 0L183 0L183-530M73-608L185-608L185-710L73-710"/><path id="sm87" d="M540-530L427-530L281-110L135-530L22-530L216 0L346 0"/><path id="sm70" d="M44-265C44-96 144 12 297 12C405 12 498-51 530-152L418-160C396-110 349-80 297-80C214-80 164-137 158-234L537-234L537-269C531-458 423-542 297-542C144-542 44-434 44-265M159-315C171-400 220-450 297-450C356-450 411-415 424-315"/><path id="sm80" d="M297 12C450 12 550-96 550-265C550-434 450-542 297-542C144-542 44-434 44-265C44-96 144 12 297 12M156-265C156-380 207-449 297-449C387-449 438-380 438-265C438-150 387-81 297-81C207-81 156-150 156-265"/><path id="sm79" d="M75-530L75 0L183 0L183-308C183-401 231-451 308-451C381-451 409-401 409-308L409 0L517 0L517-341C517-457 456-542 336-542C264-542 203-511 175-439L172-530"/><path id="sm18" d="M96-593L39-593L39-506L189-506L189 0L298 0L298-710L212-710C212-629 176-593 96-593"/><path id="sm25" d="M313 16C475 16 587-65 587-195C587-283 534-352 444-385C513-412 553-459 553-531C553-644 455-726 313-726C171-726 73-644 73-531C73-459 112-412 181-385C92-353 39-284 39-195C39-65 150 16 313 16M152-207C152-282 215-330 313-330C410-330 473-282 473-207C473-132 410-84 313-84C215-84 152-132 152-207M186-526C186-587 234-626 313-626C391-626 439-587 439-526C439-464 391-426 313-426C234-426 186-464 186-526"/><path id="sm71" d="M128-553L128-523L55-523L55-434L128-434L128 0L236 0L236-434L369-434L369-523L236-523L236-553C236-596 260-622 293-622L376-622L376-710L286-710C177-710 128-651 128-553"/><path id="sm20" d="M307-423L251-424L251-330L307-331C385-333 465-295 465-208C465-120 385-84 308-84C244-84 169-117 161-197L49-191C55-68 160 16 308 16C469 16 578-69 578-195C578-289 521-357 417-384C507-408 554-461 554-541C554-651 455-726 308-726C181-726 84-653 71-548L183-541C191-593 239-626 307-626C389-626 440-590 440-534C440-451 369-422 307-423"/><path id="sm23" d="M466-545L574-552C544-664 451-726 340-726C133-726 59-530 59-315C59-207 83-118 133-65C186-9 251 16 318 16C469 16 578-79 578-235C578-379 482-479 341-479C265-479 203-444 165-379C176-536 236-627 339-627C401-627 446-597 466-545M174-235C175-323 238-385 327-385C408-385 466-323 466-235C466-145 406-81 321-81C233-81 172-145 174-235"/><path id="sm69" d="M536-710L428-710L428-460C398-511 338-542 268-542C130-542 44-435 44-265C44-95 130 12 268 12C341 12 403-21 433-75L436 0L536 0M155-265C155-380 210-452 296-452C382-452 436-380 436-265C436-152 382-81 296-81C211-81 155-152 155-265"/><path id="sm66" d="M53-371L164-364C179-423 219-454 280-454C357-454 395-414 396-329L245-300C123-276 44-245 44-139C44-45 129 12 235 12C323 12 382-31 405-81C410-7 476 1 524 0L558 0L558-85L536-85C515-85 504-94 504-120L504-317C504-462 425-542 280-542C158-542 74-478 53-371M156-141C156-208 214-214 286-227L398-247L398-242C398-128 337-71 258-71C189-71 156-103 156-141"/><path id="sm90" d="M22-530L214-16L247-16L230 28C220 53 205 63 177 63L114 63L114 150L193 150C259 150 299 122 321 62L533-530L425-530L280-114L131-530"/><path id="sm84" d="M383-363L494-369C476-475 388-542 273-542C141-542 57-479 57-375C57-273 154-243 266-219C323-206 390-200 390-143C390-94 330-78 284-78C211-78 165-115 155-174L44-167C52-56 149 12 285 12C397 12 502-34 502-138C502-242 417-278 285-302C231-312 170-331 169-379C168-425 211-452 265-452C319-452 372-419 383-363"/><path id="m111" d="M254 12Q177 12 131-40Q85-93 85-188L85-532L186-532L186-214Q186-142 211-109Q236-76 287-76Q342-76 376-113Q409-150 409-218L409-532L510-532L510 0L415 0L414-88Q398-51 369-26Q324 12 254 12"/><path id="m104" d="M173 150L72 150L72-532L168-532L169-446Q189-487 224-512Q269-544 331-544Q408-544 457-505Q506-467 530-404Q554-341 554-266Q554-191 530-128Q506-65 457-26Q408 12 331 12Q290 12 255-1Q220-15 196-41Q182-54 173-71L173 150M312-81Q376-81 412-129Q448-177 448-266Q448-355 412-403Q376-451 312-451Q270-451 239-430Q208-410 191-369Q173-328 173-266Q173-204 190-163Q207-122 239-101Q270-81 312-81"/><path id="m71" d="M258 12Q190 12 140-21Q90-55 63-117Q36-180 36-266Q36-352 63-414Q90-477 140-510Q190-544 258-544Q302-544 337-528Q372-512 395-487Q408-472 417-457L417-710L518-710L518 0L424 0L421-82Q411-63 397-46Q372-18 337-3Q302 12 258 12M275-81Q319-81 351-103Q382-126 400-167Q417-209 417-266Q417-325 400-366Q382-407 350-429Q318-451 273-451Q212-451 177-402Q142-353 142-266Q142-180 177-130Q212-81 275-81"/><path id="m60" d="M228 12Q178 12 138-6Q98-24 75-57Q51-90 51-134Q51-202 93-240Q134-278 218-294L390-330Q390-392 363-423Q336-454 282-454Q232-454 204-431Q176-408 166-367L60-374Q75-450 133-497Q191-544 282-544Q384-544 438-486Q491-428 491-326L491-116Q491-98 499-90Q507-83 522-83L552-83L552 0Q546 1 533 2Q519 3 506 3Q470 3 445-9Q420-21 408-47Q401-60 397-76Q390-61 378-48Q353-20 314-4Q275 12 228 12M243-71Q291-71 324-88Q357-105 374-136Q390-167 390-209L390-250L242-220Q194-211 175-192Q156-173 156-142Q156-109 179-90Q202-71 243-71"/><path id="m110" d="M524 0L376 0Q295 0 256-37Q216-75 216-153L216-447L48-447L48-532L216-532L216-657L317-657L317-532L524-532L524-447L317-447L317-158Q317-121 335-103Q352-85 387-85L524-85"/><path id="m73" d="M305 12Q230 12 175-22Q119-56 89-119Q58-182 58-266Q58-350 89-412Q119-474 174-509Q228-544 302-544Q372-544 427-510Q481-477 512-414Q542-352 542-264L542-236L163-236Q168-160 206-120Q243-81 306-81Q353-81 384-103Q415-126 427-162L532-155Q509-79 450-33Q391 12 305 12M164-317L432-317Q427-385 391-418Q355-451 301-451Q245-451 210-417Q174-383 164-317"/><path id="m125" d="M300 16Q222 16 165-29Q108-74 78-157Q48-240 48-354Q48-469 78-552Q108-635 165-680Q222-726 300-726Q379-726 436-680Q492-635 522-552Q552-469 552-354Q552-240 522-157Q492-74 436-29Q379 16 300 16M300-82Q345-82 377-114Q408-147 426-208Q443-269 443-354Q443-441 426-502Q425-505 424-508L216-123Q220-119 224-115Q256-82 300-82M176-202L384-587Q380-591 377-596Q345-628 300-628Q256-628 224-595Q192-563 175-502Q157-441 157-354Q157-269 175-208Q175-205 176-202"/><path id="m131" d="M302 16Q220 16 163-21Q105-58 76-129Q46-201 46-302Q46-390 61-467Q76-544 109-602Q142-660 196-693Q250-726 329-726Q395-726 440-704Q484-683 512-644Q539-605 553-555L445-546Q435-583 409-605Q382-628 329-628Q275-628 237-597Q198-566 176-503Q161-460 155-401Q159-406 164-411Q190-441 230-459Q270-478 322-478Q393-478 445-448Q496-419 525-364Q554-310 554-238Q554-159 522-102Q490-46 434-15Q378 16 302 16M302-83Q368-83 407-123Q445-163 445-236Q445-304 409-343Q373-383 310-383Q265-383 231-365Q196-347 177-314Q157-281 157-236Q157-192 175-157Q192-122 225-102Q258-83 302-83"/><path id="m185" d="M482-245L118-245L118-338L482-338"/><path id="m134" d="M298-726Q380-726 438-689Q495-652 525-581Q554-510 554-408Q554-320 539-243Q524-166 491-108Q458-50 404-17Q350 16 271 16Q205 16 161-5Q116-27 89-66Q61-105 47-155L155-164Q166-127 193-104Q219-82 271-82Q325-82 364-113Q403-144 425-207Q439-250 445-308Q441-303 437-299Q410-269 370-250Q330-232 278-232Q208-232 156-261Q104-291 75-345Q46-400 46-472Q46-551 78-607Q110-664 167-695Q223-726 298-726M298-627Q232-627 194-587Q155-547 155-474Q155-407 192-367Q228-327 290-327Q335-327 370-345Q404-363 424-396Q443-429 443-474Q443-518 426-553Q408-588 376-607Q343-627 298-627"/><path id="m128" d="M294 16Q177 16 115-40Q53-96 48-187L155-194Q161-133 200-107Q238-82 295-82Q334-82 368-94Q402-106 423-132Q443-158 443-202Q443-245 425-273Q406-301 373-314Q339-328 296-328L241-328L241-422L296-422Q330-422 358-432Q386-442 403-465Q419-488 419-524Q419-576 388-602Q356-628 298-628Q238-628 208-603Q177-578 170-534L62-541Q73-624 134-675Q194-726 299-726Q369-726 421-702Q472-679 500-636Q528-593 528-533Q528-467 487-427Q457-398 409-382Q465-366 502-329Q552-277 552-199Q552-131 520-83Q487-35 429-9Q370 16 294 16"/></defs>
<defs>
  <clipPath id="cardclip"><rect width="600" height="340" rx="20"/></clipPath>
  <linearGradient id="cardbg" x1="0" y1="0" x2="1" y2="1"><stop offset="0" stop-color="#0B1030"/><stop offset="1" stop-color="#151C4B"/></linearGradient>
  <radialGradient id="glow"><stop offset="0" stop-color="#E63946" stop-opacity=".16"/><stop offset="1" stop-color="#E63946" stop-opacity="0"/></radialGradient>
</defs>
<g clip-path="url(#cardclip)"><rect width="600" height="340" fill="url(#cardbg)"/><circle cx="600" cy="0" r="272" fill="url(#glow)"/>
<defs><linearGradient id="ring" x1="0" y1="0" x2="1" y2="1"><stop offset="0" stop-color="#2F6BFF"/><stop offset="1" stop-color="#E63946"/></linearGradient></defs>
<rect x="28" y="34" width="10" height="10" rx="2" fill="#E63946"/><g fill="#8C96C8"><use href="#m21" transform="translate(46 44) scale(0.0125)"/><use href="#m23" transform="translate(56 44) scale(0.0125)"/><use href="#m48" transform="translate(66 44) scale(0.0125)"/><use href="#m22" transform="translate(76 44) scale(0.0125)"/><use href="#m49" transform="translate(86 44) scale(0.0125)"/><use href="#m10" transform="translate(96 44) scale(0.0125)"/><use href="#m35" transform="translate(116 44) scale(0.0125)"/><use href="#m54" transform="translate(126 44) scale(0.0125)"/><use href="#m15" transform="translate(136 44) scale(0.0125)"/><use href="#m46" transform="translate(146 44) scale(0.0125)"/><use href="#m54" transform="translate(156 44) scale(0.0125)"/><use href="#m23" transform="translate(166 44) scale(0.0125)"/><use href="#m15" transform="translate(176 44) scale(0.0125)"/><use href="#m55" transform="translate(186 44) scale(0.0125)"/></g>
<g fill="#5F6AA0"><use href="#m31" transform="translate(457.8 44) scale(0.0105)"/><use href="#m1" transform="translate(466.1 44) scale(0.0105)"/><use href="#m47" transform="translate(474.4 44) scale(0.0105)"/><use href="#m48" transform="translate(482.7 44) scale(0.0105)"/><use href="#m126" transform="translate(499.3 44) scale(0.0105)"/><use href="#m127" transform="translate(507.6 44) scale(0.0105)"/><use href="#m32" transform="translate(524.2 44) scale(0.0105)"/><use href="#m35" transform="translate(532.5 44) scale(0.0105)"/><use href="#m33" transform="translate(540.8 44) scale(0.0105)"/><use href="#m48" transform="translate(549.1 44) scale(0.0105)"/><use href="#m22" transform="translate(557.4 44) scale(0.0105)"/><use href="#m47" transform="translate(565.7 44) scale(0.0105)"/></g>
<circle cx="132" cy="184" r="78" fill="none" stroke="#fff" stroke-opacity=".07" stroke-width="14"/>
<circle cx="132" cy="184" r="78" fill="none" stroke="url(#ring)" stroke-width="14" stroke-linecap="round" transform="rotate(-90 132 184)" stroke-dasharray="490.1" stroke-dashoffset="490.1"><animate attributeName="stroke-dashoffset" from="490.1" to="466.1" dur="1.6s" begin=".3s" fill="freeze" calcMode="spline" keyTimes="0;1" keySplines=".4 0 .2 1"/></circle>
<g fill="#F2F5FF"><use href="#d65" transform="translate(107.76 194) scale(0.04)"/><use href="#d58" transform="translate(132.48 194) scale(0.04)"/></g>
<g fill="#8C96C8"><use href="#m11" transform="translate(82.95 216) scale(0.0095)"/><use href="#m35" transform="translate(90.65 216) scale(0.0095)"/><use href="#m33" transform="translate(98.35 216) scale(0.0095)"/><use href="#m48" transform="translate(106.05 216) scale(0.0095)"/><use href="#m46" transform="translate(113.75 216) scale(0.0095)"/><use href="#m23" transform="translate(121.45 216) scale(0.0095)"/><use href="#m10" transform="translate(129.15 216) scale(0.0095)"/><use href="#m49" transform="translate(136.85 216) scale(0.0095)"/><use href="#m48" transform="translate(144.55 216) scale(0.0095)"/><use href="#m23" transform="translate(152.25 216) scale(0.0095)"/><use href="#m35" transform="translate(159.95 216) scale(0.0095)"/><use href="#m33" transform="translate(167.65 216) scale(0.0095)"/><use href="#m47" transform="translate(175.35 216) scale(0.0095)"/></g>
<g fill="#C9D1F7"><use href="#sm34" transform="translate(51.08 306) scale(0.014)"/><use href="#sm68" transform="translate(60.6 306) scale(0.014)"/><use href="#sm85" transform="translate(68.16 306) scale(0.014)"/><use href="#sm74" transform="translate(73.96 306) scale(0.014)"/><use href="#sm87" transform="translate(77.57 306) scale(0.014)"/><use href="#sm70" transform="translate(85.07 306) scale(0.014)"/><use href="#sm80" transform="translate(96.62 306) scale(0.014)"/><use href="#sm79" transform="translate(104.85 306) scale(0.014)"/><use href="#sm18" transform="translate(116.54 306) scale(0.014)"/><use href="#sm25" transform="translate(122.23 306) scale(0.014)"/><use href="#sm80" transform="translate(134.38 306) scale(0.014)"/><use href="#sm71" transform="translate(142.42 306) scale(0.014)"/><use href="#sm20" transform="translate(151.64 306) scale(0.014)"/><use href="#sm23" transform="translate(160.41 306) scale(0.014)"/><use href="#sm25" transform="translate(169.31 306) scale(0.014)"/><use href="#sm69" transform="translate(181.46 306) scale(0.014)"/><use href="#sm66" transform="translate(190.02 306) scale(0.014)"/><use href="#sm90" transform="translate(197.87 306) scale(0.014)"/><use href="#sm84" transform="translate(205.28 306) scale(0.014)"/></g>
<g class="fade" style="animation-delay:0.2s"><g fill="#8C96C8"><use href="#m11" transform="translate(262 94) scale(0.0115)"/><use href="#m35" transform="translate(270.4 94) scale(0.0115)"/><use href="#m32" transform="translate(278.8 94) scale(0.0115)"/><use href="#m32" transform="translate(287.2 94) scale(0.0115)"/><use href="#m23" transform="translate(295.6 94) scale(0.0115)"/><use href="#m48" transform="translate(304 94) scale(0.0115)"/><use href="#m47" transform="translate(312.4 94) scale(0.0115)"/></g>
<g fill="#F2F5FF"><use href="#d64" transform="translate(550.51 95) scale(0.018)"/><use href="#d58" transform="translate(561.31 95) scale(0.018)"/></g>
<line x1="262" y1="104" x2="572" y2="104" stroke="#fff" stroke-opacity=".06"/></g><g class="fade" style="animation-delay:0.28s"><g fill="#8C96C8"><use href="#m1" transform="translate(262 123) scale(0.0115)"/><use href="#m11" transform="translate(270.4 123) scale(0.0115)"/><use href="#m48" transform="translate(278.8 123) scale(0.0115)"/><use href="#m23" transform="translate(287.2 123) scale(0.0115)"/><use href="#m54" transform="translate(295.6 123) scale(0.0115)"/><use href="#m15" transform="translate(304 123) scale(0.0115)"/><use href="#m13" transform="translate(320.8 123) scale(0.0115)"/><use href="#m1" transform="translate(329.2 123) scale(0.0115)"/><use href="#m57" transform="translate(337.6 123) scale(0.0115)"/><use href="#m47" transform="translate(346 123) scale(0.0115)"/></g>
<g fill="#F2F5FF"><use href="#d57" transform="translate(553.06 124) scale(0.018)"/><use href="#d64" transform="translate(561.2 124) scale(0.018)"/></g>
<line x1="262" y1="133" x2="572" y2="133" stroke="#fff" stroke-opacity=".06"/></g><g class="fade" style="animation-delay:0.36s"><g fill="#8C96C8"><use href="#m43" transform="translate(262 152) scale(0.0115)"/><use href="#m49" transform="translate(270.4 152) scale(0.0115)"/><use href="#m10" transform="translate(278.8 152) scale(0.0115)"/><use href="#m31" transform="translate(287.2 152) scale(0.0115)"/><use href="#m23" transform="translate(295.6 152) scale(0.0115)"/><use href="#m11" transform="translate(304 152) scale(0.0115)"/><use href="#m46" transform="translate(320.8 152) scale(0.0115)"/><use href="#m15" transform="translate(329.2 152) scale(0.0115)"/><use href="#m43" transform="translate(337.6 152) scale(0.0115)"/><use href="#m35" transform="translate(346 152) scale(0.0115)"/><use href="#m47" transform="translate(354.4 152) scale(0.0115)"/></g>
<g fill="#F2F5FF"><use href="#d57" transform="translate(552.2 153) scale(0.018)"/><use href="#d56" transform="translate(560.34 153) scale(0.018)"/></g>
<line x1="262" y1="162" x2="572" y2="162" stroke="#fff" stroke-opacity=".06"/></g><g class="fade" style="animation-delay:0.44s"><g fill="#8C96C8"><use href="#m11" transform="translate(262 181) scale(0.0115)"/><use href="#m49" transform="translate(270.4 181) scale(0.0115)"/><use href="#m46" transform="translate(278.8 181) scale(0.0115)"/><use href="#m46" transform="translate(287.2 181) scale(0.0115)"/><use href="#m15" transform="translate(295.6 181) scale(0.0115)"/><use href="#m33" transform="translate(304 181) scale(0.0115)"/><use href="#m48" transform="translate(312.4 181) scale(0.0115)"/><use href="#m47" transform="translate(329.2 181) scale(0.0115)"/><use href="#m48" transform="translate(337.6 181) scale(0.0115)"/><use href="#m46" transform="translate(346 181) scale(0.0115)"/><use href="#m15" transform="translate(354.4 181) scale(0.0115)"/><use href="#m1" transform="translate(362.8 181) scale(0.0115)"/><use href="#m30" transform="translate(371.2 181) scale(0.0115)"/></g>
<g fill="#F2F5FF"><use href="#d58" transform="translate(545.25 182) scale(0.018)"/><use href="#d33" transform="translate(560.52 182) scale(0.018)"/></g>
<line x1="262" y1="191" x2="572" y2="191" stroke="#fff" stroke-opacity=".06"/></g><g class="fade" style="animation-delay:0.52s"><g fill="#8C96C8"><use href="#m31" transform="translate(262 210) scale(0.0115)"/><use href="#m35" transform="translate(270.4 210) scale(0.0115)"/><use href="#m33" transform="translate(278.8 210) scale(0.0115)"/><use href="#m21" transform="translate(287.2 210) scale(0.0115)"/><use href="#m15" transform="translate(295.6 210) scale(0.0115)"/><use href="#m47" transform="translate(304 210) scale(0.0115)"/><use href="#m48" transform="translate(312.4 210) scale(0.0115)"/><use href="#m47" transform="translate(329.2 210) scale(0.0115)"/><use href="#m48" transform="translate(337.6 210) scale(0.0115)"/><use href="#m46" transform="translate(346 210) scale(0.0115)"/><use href="#m15" transform="translate(354.4 210) scale(0.0115)"/><use href="#m1" transform="translate(362.8 210) scale(0.0115)"/><use href="#m30" transform="translate(371.2 210) scale(0.0115)"/></g>
<g fill="#F2F5FF"><use href="#d59" transform="translate(545 211) scale(0.018)"/><use href="#d33" transform="translate(560.52 211) scale(0.018)"/></g>
<line x1="262" y1="220" x2="572" y2="220" stroke="#fff" stroke-opacity=".06"/></g><g class="fade" style="animation-delay:0.6000000000000001s"><g fill="#8C96C8"><use href="#m10" transform="translate(262 239) scale(0.0115)"/><use href="#m15" transform="translate(270.4 239) scale(0.0115)"/><use href="#m47" transform="translate(278.8 239) scale(0.0115)"/><use href="#m48" transform="translate(287.2 239) scale(0.0115)"/><use href="#m13" transform="translate(304 239) scale(0.0115)"/><use href="#m1" transform="translate(312.4 239) scale(0.0115)"/><use href="#m57" transform="translate(320.8 239) scale(0.0115)"/></g>
<g fill="#F2F5FF"><use href="#d57" transform="translate(552.74 240) scale(0.018)"/><use href="#d62" transform="translate(560.88 240) scale(0.018)"/></g>
<line x1="262" y1="249" x2="572" y2="249" stroke="#fff" stroke-opacity=".06"/></g>
<g fill="#5F6AA0"><use href="#m111" transform="translate(469.4 324) scale(0.0095)"/><use href="#m104" transform="translate(475.1 324) scale(0.0095)"/><use href="#m71" transform="translate(480.8 324) scale(0.0095)"/><use href="#m60" transform="translate(486.5 324) scale(0.0095)"/><use href="#m110" transform="translate(492.2 324) scale(0.0095)"/><use href="#m73" transform="translate(497.9 324) scale(0.0095)"/><use href="#m71" transform="translate(503.6 324) scale(0.0095)"/><use href="#m127" transform="translate(515 324) scale(0.0095)"/><use href="#m125" transform="translate(520.7 324) scale(0.0095)"/><use href="#m127" transform="translate(526.4 324) scale(0.0095)"/><use href="#m131" transform="translate(532.1 324) scale(0.0095)"/><use href="#m185" transform="translate(537.8 324) scale(0.0095)"/><use href="#m125" transform="translate(543.5 324) scale(0.0095)"/><use href="#m134" transform="translate(549.2 324) scale(0.0095)"/><use href="#m185" transform="translate(554.9 324) scale(0.0095)"/><use href="#m128" transform="translate(560.6 324) scale(0.0095)"/><use href="#m125" transform="translate(566.3 324) scale(0.0095)"/></g></g>
<rect x="1" y="1" width="598" height="338" rx="19" fill="none" stroke="#fff" stroke-opacity=".08" stroke-width="1.5"/>
<rect x="1" y="1" width="598" height="338" rx="19" fill="none" stroke="#E63946" stroke-width="2.5" stroke-linecap="round" stroke-dasharray="130 1750"><animate attributeName="stroke-dashoffset" from="0" to="-1880" dur="7s" repeatCount="indefinite"/></rect>
</svg>
