<svg xmlns="http://www.w3.org/2000/svg" width="600" height="1168" viewBox="0 0 600 1168" role="img" aria-label="LICET CSE ERP — The department ERP for Computer Science &amp; Engineering at LICET: attendance, marks, leave, grievances and GPA under Regulations 2024. Stockfish Chess — Runs the Stockfish engine in WebAssembly workers behind a React UI, so the board stays responsive while it thinks.">
<title>LICET CSE ERP — The department ERP for Computer Science &amp; Engineering at LICET: attendance, marks, leave, grievances and GPA under Regulations 2024. Stockfish Chess — Runs the Stockfish engine in WebAssembly workers behind a React UI, so the board stays responsive while it thinks.</title>
<style>
.spin{animation:spin 1.6s linear infinite;transform-box:fill-box;transform-origin:center}
.tw{animation:tw ease-in-out infinite alternate}
.fade{opacity:0;animation:fadeUp .8s ease-out forwards}
.pulse{animation:pulse 1.6s ease-in-out infinite;transform-box:fill-box;transform-origin:center}
.flk{animation:flk 2.4s ease-in-out infinite alternate}
.petal{animation:fall linear infinite;transform-box:fill-box;transform-origin:center}
@keyframes spin{to{transform:rotate(360deg)}}
@keyframes tw{from{opacity:.12}to{opacity:.95}}
@keyframes fadeUp{from{opacity:0;transform:translateY(8px)}to{opacity:1;transform:none}}
@keyframes pulse{0%,100%{opacity:1;transform:scale(1)}50%{opacity:.35;transform:scale(.7)}}
@keyframes flk{0%{opacity:.5}40%{opacity:1}70%{opacity:.7}100%{opacity:.95}}
@keyframes fall{from{transform:translate(0,0) rotate(0deg)}to{transform:translate(-260px,820px) rotate(600deg)}}
@media (prefers-reduced-motion:reduce){*{animation:none!important}.fade{opacity:1}}</style>
<defs><path id="d59" d="M304 14Q225 14 164-14Q103-42 69-94Q34-147 34-219L34-237L162-237L162-223Q162-167 201-133Q240-100 304-100Q369-100 405-131Q440-162 440-209L440-219Q440-251 424-271Q408-291 381-300Q354-310 320-310L180-310L180-450L406-570L406-586L52-586L52-700L548-700L548-530L337-418L337-402L374-402Q421-402 466-383Q510-364 539-324Q568-285 568-222L568-210Q568-142 535-91Q502-41 443-13Q383 14 304 14"/><path id="m111" d="M254 12Q177 12 131-40Q85-93 85-188L85-532L186-532L186-214Q186-142 211-109Q236-76 287-76Q342-76 376-113Q409-150 409-218L409-532L510-532L510 0L415 0L414-88Q398-51 369-26Q324 12 254 12"/><path id="m108" d="M308 12Q237 12 186-12Q135-36 107-76Q79-117 75-167L178-173Q186-130 218-104Q250-79 309-79Q364-79 393-94Q422-109 422-141Q422-161 412-174Q402-188 375-197Q347-207 294-217Q215-232 171-252Q126-273 107-304Q88-336 88-381Q88-427 112-464Q135-501 181-522Q227-544 295-544Q366-544 412-519Q458-495 484-456Q510-417 517-371L414-365Q408-391 393-410Q378-430 353-441Q328-453 295-453Q242-453 217-432Q192-411 192-381Q192-357 204-342Q216-328 244-318Q272-309 320-300Q401-287 445-266Q489-246 507-216Q525-186 525-142Q525-94 498-59Q470-25 422-6Q373 12 308 12"/><path id="m73" d="M305 12Q230 12 175-22Q119-56 89-119Q58-182 58-266Q58-350 89-412Q119-474 174-509Q228-544 302-544Q372-544 427-510Q481-477 512-414Q542-352 542-264L542-236L163-236Q168-160 206-120Q243-81 306-81Q353-81 384-103Q415-126 427-162L532-155Q509-79 450-33Q391 12 305 12M164-317L432-317Q427-385 391-418Q355-451 301-451Q245-451 210-417Q174-383 164-317"/><path id="m107" d="M486 0L84 0L84-85L219-85L219-447L84-447L84-532L299-532L305-429Q316-472 340-497Q373-532 433-532L546-532L546-444L437-444Q399-444 373-429Q347-415 334-386Q320-358 320-316L320-85L486-85"/><path id="m96" d="M300 12Q226 12 171-22Q115-56 85-119Q54-182 54-266Q54-351 85-413Q115-476 171-510Q226-544 300-544Q374-544 430-510Q485-476 516-413Q546-351 546-266Q546-182 516-119Q485-56 430-22Q374 12 300 12M300-81Q367-81 404-130Q440-179 440-266Q440-353 404-402Q367-451 300-451Q233-451 197-402Q160-353 160-266Q160-179 197-130Q233-81 300-81"/><path id="m92" d="M544 0L56 0L56-85L264-85L264-559Q264-590 247-607Q229-625 198-625L76-625L76-710L209-710Q286-710 326-670Q365-631 365-554L365-85L544-85"/><path id="d21" d="M198 0L66 0L66-700L370-700Q436-700 485-677Q534-654 561-612Q588-570 588-513L588-501Q588-438 558-399Q528-360 484-342L484-324Q524-322 546-296Q568-271 568-229L568 0L436 0L436-210Q436-234 424-249Q411-264 382-264L198-264L198 0M198-580L198-384L356-384Q403-384 430-409Q456-435 456-477L456-487Q456-529 430-554Q404-580 356-580"/><path id="d15" d="M518 0L66 0L66-700L198-700L198-120L518-120"/><path id="d22" d="M309 14Q228 14 166-15Q104-44 69-98Q34-152 34-228L34-256L164-256L164-228Q164-165 203-133Q242-102 309-102Q377-102 411-129Q444-156 444-198Q444-227 428-245Q411-263 380-274Q348-286 303-296L280-301Q208-317 157-341Q105-366 78-406Q50-446 50-510Q50-574 81-619Q111-665 167-689Q222-714 297-714Q372-714 431-688Q489-663 523-612Q556-562 556-486L556-456L426-456L426-486Q426-526 411-550Q395-575 366-586Q337-598 297-598Q237-598 209-575Q180-553 180-514Q180-488 194-470Q207-452 234-440Q261-428 303-419L326-414Q401-398 457-373Q512-348 543-307Q574-266 574-202Q574-138 542-89Q509-41 450-13Q390 14 309 14"/><path id="m94" d="M181 0L80 0L80-532L173-532L175-436Q185-462 201-482Q226-513 263-528Q300-544 342-544Q402-544 441-517Q480-491 500-445Q520-400 520-343L520 0L419 0L419-317Q419-386 393-421Q366-456 313-456Q276-456 247-440Q217-424 199-392Q181-361 181-315"/><path id="m78" d="M309 0L208 0L208-447L68-447L68-532L208-532L208-560Q208-634 245-672Q282-710 360-710L532-710L532-625L370-625Q340-625 325-607Q309-590 309-559L309-532L524-532L524-447L309-447"/><path id="m69" d="M312 12Q238 12 182-22Q125-57 95-119Q64-182 64-266Q64-350 95-412Q125-474 182-509Q238-544 312-544Q373-544 421-521Q469-499 500-456Q531-413 541-353L438-346Q426-397 393-424Q360-451 313-451Q246-451 208-401Q169-352 169-266Q169-180 208-130Q246-81 313-81Q361-81 396-109Q430-138 441-194L544-188Q534-127 502-82Q470-38 422-13Q373 12 312 12"/><path id="m71" d="M258 12Q190 12 140-21Q90-55 63-117Q36-180 36-266Q36-352 63-414Q90-477 140-510Q190-544 258-544Q302-544 337-528Q372-512 395-487Q408-472 417-457L417-710L518-710L518 0L424 0L421-82Q411-63 397-46Q372-18 337-3Q302 12 258 12M275-81Q319-81 351-103Q382-126 400-167Q417-209 417-266Q417-325 400-366Q382-407 350-429Q318-451 273-451Q212-451 177-402Q142-353 142-266Q142-180 177-130Q212-81 275-81"/><path id="m81" d="M564 0L76 0L76-85L284-85L284-447L86-447L86-532L386-532L386-85L564-85L564 0M382-609L278-609L278-714L382-714"/><path id="m43" d="M191 0L86 0L86-710L306-710Q380-710 436-683Q491-656 522-606Q552-557 552-489Q552-421 522-371Q491-322 436-295Q380-269 306-269L191-269L191 0M191-611L191-368L295-368Q371-368 407-399Q443-430 443-489Q443-549 407-580Q371-611 295-611"/><path id="m110" d="M524 0L376 0Q295 0 256-37Q216-75 216-153L216-447L48-447L48-532L216-532L216-657L317-657L317-532L524-532L524-447L317-447L317-158Q317-121 335-103Q352-85 387-85L524-85"/><path id="m79" d="M297 162Q237 162 190 143Q143 124 113 89Q82 54 70 8L176 1Q187 34 215 53Q243 72 297 72Q364 72 400 44Q435 16 435-39L435-117Q416-76 376-52Q335-28 282-28Q216-28 164-61Q112-94 83-151Q54-209 54-284Q54-362 83-420Q111-478 162-511Q213-544 278-544Q334-544 377-518Q419-493 438-449L439-532L536-532L536-46Q536 21 507 68Q478 114 425 138Q371 162 297 162M296-118Q358-118 396-162Q434-206 435-285Q436-339 419-376Q401-414 370-434Q338-454 296-454Q231-454 196-409Q160-365 160-285Q160-206 197-162Q233-118 296-118"/><path id="d4" d="M154 0L18 0L202-700L432-700L616 0L480 0L442-154L192-154L154 0M308-617L223-276L411-276L326-617"/><path id="d50" d="M259 8Q201 8 158-18Q114-45 90-92Q66-139 66-200L66-496L192-496L192-210Q192-154 220-126Q247-98 298-98Q356-98 388-136Q420-175 420-244L420-496L546-496L546 0L422 0L422-65L404-65Q392-40 359-16Q326 8 259 8"/><path id="d33" d="M270 14Q211 14 160-15Q108-45 77-102Q46-159 46-240L46-256Q46-337 77-394Q108-451 159-480Q210-510 270-510Q315-510 346-499Q376-489 395-473Q414-457 424-439L442-439L442-700L568-700L568 0L444 0L444-60L426-60Q409-32 374-9Q338 14 270 14M308-96Q366-96 405-133Q444-171 444-243L444-253Q444-325 406-362Q367-400 308-400Q250-400 211-362Q172-325 172-253L172-243Q172-171 211-133Q250-96 308-96"/><path id="d38" d="M196 0L70 0L70-496L196-496L196 0M133-554Q99-554 76-576Q52-598 52-634Q52-670 76-692Q99-714 133-714Q168-714 191-692Q214-670 214-634Q214-598 191-576Q168-554 133-554"/><path id="d49" d="M400 0L260 0Q211 0 181-30Q150-61 150-112L150-392L26-392L26-496L150-496L150-650L276-650L276-496L412-496L412-392L276-392L276-134Q276-104 304-104L400-104"/><path id="m60" d="M228 12Q178 12 138-6Q98-24 75-57Q51-90 51-134Q51-202 93-240Q134-278 218-294L390-330Q390-392 363-423Q336-454 282-454Q232-454 204-431Q176-408 166-367L60-374Q75-450 133-497Q191-544 282-544Q384-544 438-486Q491-428 491-326L491-116Q491-98 499-90Q507-83 522-83L552-83L552 0Q546 1 533 2Q519 3 506 3Q470 3 445-9Q420-21 408-47Q401-60 397-76Q390-61 378-48Q353-20 314-4Q275 12 228 12M243-71Q291-71 324-88Q357-105 374-136Q390-167 390-209L390-250L242-220Q194-211 175-192Q156-173 156-142Q156-109 179-90Q202-71 243-71"/><path id="m104" d="M173 150L72 150L72-532L168-532L169-446Q189-487 224-512Q269-544 331-544Q408-544 457-505Q506-467 530-404Q554-341 554-266Q554-191 530-128Q506-65 457-26Q408 12 331 12Q290 12 255-1Q220-15 196-41Q182-54 173-71L173 150M312-81Q376-81 412-129Q448-177 448-266Q448-355 412-403Q376-451 312-451Q270-451 239-430Q208-410 191-369Q173-328 173-266Q173-204 190-163Q207-122 239-101Q270-81 312-81"/><path id="m185" d="M482-245L118-245L118-338L482-338"/><path id="m119" d="M204 150L129 150L129 65L194 65Q221 65 235 57Q249 48 256 29L273-18L240-18L46-532L154-532L305-113L446-532L554-532L342 60Q326 108 293 129Q260 150 204 150"/><path id="d12" d="M198 0L66 0L66-700L198-700"/><path id="d6" d="M332 14Q202 14 126-58Q50-131 50-266L50-434Q50-569 126-641Q202-714 332-714Q461-714 532-643Q602-573 602-450L602-444L472-444L472-454Q472-516 438-556Q403-596 332-596Q262-596 222-553Q182-510 182-436L182-264Q182-191 222-147Q262-104 332-104Q403-104 438-144Q472-185 472-246L472-264L602-264L602-250Q602-127 532-56Q461 14 332 14"/><path id="d8" d="M522 0L66 0L66-700L516-700L516-580L198-580L198-413L488-413L488-293L198-293L198-120L522-120"/><path id="d23" d="M360 0L228 0L228-580L24-580L24-700L564-700L564-580L360-580"/><path id="d19" d="M198 0L66 0L66-700L354-700Q420-700 471-673Q521-647 550-599Q578-551 578-485L578-471Q578-406 549-357Q519-309 469-282Q418-256 354-256L198-256L198 0M198-580L198-376L341-376Q388-376 417-402Q446-428 446-473L446-483Q446-528 417-554Q388-580 341-580"/><path id="m13" d="M256 0L83 0L83-710L256-710Q350-710 420-668Q489-627 527-547Q564-468 564-354Q564-240 527-161Q489-82 420-41Q350 0 256 0M188-611L188-99L253-99Q350-99 403-162Q455-226 455-354Q455-482 403-546Q350-611 253-611"/><path id="m15" d="M532 0L88 0L88-710L524-710L524-611L193-611L193-404L512-404L512-308L193-308L193-99L532-99"/><path id="m1" d="M133 0L24 0L232-710L368-710L576 0L467 0L416-185L184-185L133 0M211-282L389-282L300-601"/><path id="m46" d="M172 0L67 0L67-710L288-710Q401-710 466-653Q530-596 530-498Q530-447 508-408Q485-369 449-347Q430-336 410-329Q452-321 478-301Q514-270 520-202L538 0L433 0L417-182Q414-217 402-238Q390-259 365-268Q340-277 296-277L172-277L172 0M172-611L172-375L286-375Q352-375 387-406Q422-437 422-493Q422-550 387-580Q352-611 286-611"/><path id="m48" d="M352 0L248 0L248-611L40-611L40-710L560-710L560-611L352-611"/><path id="m32" d="M340-86L260-86L149-548L149 0L48 0L48-710L188-710L300-253L412-710L552-710L552 0L451 0L451-548"/><path id="m33" d="M171 0L68 0L68-710L196-710L429-150L429-710L532-710L532 0L404 0L171-560"/><path id="m179" d="M368-238L232-238L232-370L368-370"/><path id="m20" d="M203 0L98 0L98-710L542-710L542-613L203-613L203-395L524-395L524-299L203-299"/><path id="m49" d="M300 16Q186 16 122-54Q58-124 58-247L58-710L163-710L163-243Q163-165 198-123Q233-82 300-82Q367-82 402-123Q437-165 437-243L437-710L542-710L542-247Q542-124 478-54Q414 16 300 16"/><path id="m31" d="M542 0L98 0L98-710L203-710L203-99L542-99"/><path id="m47" d="M309 16Q232 16 175-15Q117-46 83-101Q49-157 43-231L151-238Q158-187 179-152Q200-117 234-99Q268-82 313-82Q357-82 387-93Q417-105 433-127Q449-149 449-181Q449-213 434-236Q419-259 380-278Q341-298 266-319Q193-339 147-364Q101-390 80-427Q59-465 59-520Q59-581 88-627Q116-674 170-700Q223-726 298-726Q372-726 425-697Q477-668 508-616Q538-565 545-496L437-490Q432-531 415-562Q397-593 367-610Q337-628 295-628Q236-628 202-600Q167-572 167-525Q167-495 181-474Q195-454 230-438Q265-423 328-405Q413-382 463-351Q513-321 535-280Q557-239 557-181Q557-123 526-78Q495-33 440-8Q384 16 309 16"/><path id="m11" d="M303 16Q217 16 158-29Q98-74 67-157Q36-240 36-354Q36-469 67-552Q98-635 158-680Q217-726 303-726Q400-726 467-662Q533-598 554-483L444-477Q429-551 392-589Q354-628 303-628Q251-628 216-596Q181-564 163-503Q145-442 145-354Q145-267 163-206Q181-146 216-114Q251-82 303-82Q358-82 397-124Q436-166 449-247L558-242Q540-120 473-52Q406 16 303 16"/><path id="m30" d="M161 0L56 0L56-710L161-710L161-376L427-710L554-710L301-398L562 0L439 0L234-317L161-226"/><path id="m208" d="M235 16Q132 16 74-33Q16-83 16-172Q16-219 30-255Q43-291 74-324Q105-357 157-392Q135-420 120-446Q104-472 95-498Q86-525 86-556Q86-635 135-680Q183-726 269-726Q355-726 399-684Q443-642 443-570Q443-511 408-465Q373-419 295-368L437-185Q454-207 463-241Q472-276 472-322L570-311Q568-252 548-197Q527-142 496-106L582 0L466 0L431-43Q403-17 3550Q306 16 235 16M248-79Q293-79 324-90Q354-101 370-117L213-317Q166-285 145-253Q124-221 124-179Q124-134 154-106Q184-79 248-79M243-438Q278-460 299-479Q320-498 330-518Q339-538 339-561Q339-594 321-611Q302-629 269-629Q232-629 212-610Q192-591 192-556Q192-538 197-520Q201-502 213-482Q224-463 243-438"/><path id="m22" d="M161 0L56 0L56-710L161-710L161-406L439-406L439-710L544-710L544 0L439 0L439-308L161-308"/><path id="m23" d="M522 0L78 0L78-99L248-99L248-611L78-611L78-710L522-710L522-611L352-611L352-99L522-99"/><path id="m54" d="M362 0L238 0L27-710L138-710L300-141L462-710L573-710"/><path id="s53" d="M553-710L25-710L25-624L245-624L245 0L333 0L333-624L553-624"/><path id="s73" d="M80-710L80 0L166 0L166-311C166-408 221-460 305-460C384-460 416-408 416-311L416 0L502 0L502-341C502-453 444-542 323-542C259-542 197-516 166-460L166-710"/><path id="s70" d="M47-265C47-96 143 12 290 12C392 12 482-50 513-150L421-157C397-102 346-70 290-70C200-70 146-132 138-238L521-238L520-277C511-467 406-542 290-542C143-542 47-434 47-265M140-314C154-406 207-460 290-460C353-460 412-424 427-314"/><path id="s69" d="M519-710L433-710L433-462C404-511 342-542 271-542C133-542 47-435 47-265C47-95 133 12 271 12C345 12 409-21 438-74L441 0L519 0M137-265C137-387 196-464 289-464C382-464 441-387 441-265C441-145 382-70 289-70C196-70 137-145 137-265"/><path id="s81" d="M80 150L166 150L166-71C195-16 250 12 323 12C482 12 552-120 552-265C552-410 482-542 323-542C246-542 190-510 161-453L158-530L80-530M156-265C156-363 200-460 308-460C417-460 460-364 460-265C460-166 417-70 308-70C200-70 156-167 156-265"/><path id="s66" d="M56-374L147-367C163-427 207-460 273-460C358-460 400-417 401-329L247-299C129-276 47-249 47-139C47-44 133 12 238 12C322 12 380-33 402-81C402-17 450 0 504 0L541 0L541-76L519-76C497-76 487-86 487-108L487-320C487-462 410-542 273-542C160-542 77-477 56-374M137-139C137-213 201-217 279-231L403-253L403-248C403-124 335-64 249-64C172-64 137-98 137-139"/><path id="s83" d="M80-530L80 0L166 0L166-316C166-407 203-454 284-454L336-454L336-530L284-530C215-530 176-500 159-435L156-530"/><path id="s85" d="M132-650L132-530L55-530L55-454L132-454L132-142C132-51 185 0 281 0L358 0L358-76L281-76C239-76 218-98 218-142L218-454L360-454L360-530L218-530L218-650"/><path id="s78" d="M80-530L80 0L166 0L166-317C166-410 214-466 295-466C358-466 396-410 396-317L396 0L482 0L482-317C482-412 529-466 611-466C675-466 712-412 712-317L712 0L798 0L798-341C798-469 736-542 629-542C546-542 491-503 468-432C445-502 390-542 313-542C240-542 186-506 161-442L158-530"/><path id="s79" d="M80-530L80 0L166 0L166-317C166-414 221-466 305-466C384-466 416-414 416-317L416 0L502 0L502-341C502-453 444-542 323-542C250-542 188-510 161-439L158-530"/><path id="s38" d="M92-710L92 0L547 0L547-86L180-86L180-314L527-314L527-398L180-398L180-624L539-624L539-710"/><path id="s51" d="M362-710L92-710L92 0L180 0L180-285L353-285C456-285 498-264 504-200L522 0L611 0L591-209C584-284 554-320 484-331C547-349 604-412 604-495C604-627 511-710 362-710M180-371L180-624L362-624C458-624 512-578 512-497C512-416 458-371 362-371"/><path id="s49" d="M347-710L92-710L92 0L180 0L180-275L347-275C506-275 599-357 599-495C599-630 506-710 347-710M180-361L180-624L347-624C454-624 507-581 507-495C507-406 454-361 347-361"/><path id="s71" d="M131-563L131-530L60-530L60-454L131-454L131 0L217 0L217-454L350-454L350-530L217-530L217-563C217-607 241-634 275-634L357-634L357-710L275-710C176-710 131-652 131-563"/><path id="s80" d="M290 12C437 12 533-96 533-265C533-434 437-542 290-542C143-542 47-434 47-265C47-96 143 12 290 12M137-265C137-387 193-460 290-460C387-460 443-387 443-265C443-143 387-70 290-70C193-70 137-143 137-265"/><path id="s36" d="M658-234L564-240C543-131 474-70 371-70C210-70 141-203 141-354C141-506 209-640 371-640C468-640 536-585 559-486L652-492C621-632 522-726 371-726C165-726 49-560 49-354C49-149 166 16 371 16C535 16 632-85 658-234"/><path id="s86" d="M496 0L496-530L410-530L410-214C410-116 355-64 274-64C198-64 166-116 166-214L166-530L80-530L80-189C80-77 138 12 256 12C325 12 386-19 414-87L414 0"/><path id="s52" d="M151-233L59-227C71-83 185 12 341 12C469 12 590-56 590-188C590-297 486-361 358-397C271-421 166-444 166-531C166-598 225-640 305-640C402-640 470-582 483-494L575-500C560-631 459-726 306-726C170-726 74-651 74-531C74-416 180-359 295-330C436-294 498-251 498-179C498-109 438-74 348-74C236-74 170-138 151-233"/><path id="s68" d="M421-352L511-358C497-472 398-542 290-542C143-542 47-434 47-265C47-96 143 12 290 12C402 12 499-62 516-182L425-188C413-113 356-70 290-70C193-70 137-143 137-265C137-387 193-460 290-460C353-460 410-420 421-352"/><path id="s74" d="M80-530L80 0L166 0L166-530M78-613L168-613L168-710L78-710"/><path id="s7" d="M289-726C386-717 466-625 431-522C413-470 369-417 300-374L462-168C486-200 495-265 491-320L581-312C581-232 555-150 516-103L602 0L498 0L462-44C423-8 361 12 292 12C142 12 40-58 40-188C40-272 76-322 165-384L178-393C132-454 113-511 113-561C113-666 199-734 289-726M129-188C129-114 192-68 292-68C340-68 383-83 403-108L232-326C188-297 129-254 129-188M200-558C200-527 214-488 249-440C313-469 353-515 353-558C353-604 327-637 284-640C236-643 199-604 200-558"/><path id="s72" d="M281-28C348-28 406-63 432-119L432-32C432 41 376 80 283 80C218 80 173 51 151 2L61 8C86 101 170 162 283 162C422 162 518 88 518-52L518-530L436-530L436-448C412-506 352-542 280-542C143-542 47-436 47-285C47-134 144-28 281-28M137-285C137-393 194-460 286-460C378-460 435-393 433-285C432-177 375-110 286-110C194-110 137-177 137-285"/><path id="s45" d="M92 0L534 0L534-86L180-86L180-710L92-710"/><path id="s42" d="M92-710L92 0L180 0L180-710"/><path id="s27" d="M92-110L92 0L201 0L201-110M92-353L201-353L201-463L92-463"/><path id="s13" d="M156 0L156-110L47-110L47 0L88 0L49 155L99 155"/><path id="s76" d="M80-710L80 0L166 0L166-135L268-246L438 0L544 0L327-305L534-530L417-530L166-247L166-710"/><path id="s84" d="M384-366L474-372C457-475 370-542 264-542C142-542 60-478 60-376C60-272 164-245 260-223C320-209 394-203 394-140C394-86 327-70 277-70C198-70 148-110 137-173L47-167C55-57 151 12 277 12C377 12 484-32 484-135C484-241 395-274 275-297C219-308 150-329 150-381C150-431 197-460 255-460C313-460 372-425 384-366"/><path id="s77" d="M80-710L80-104C80-42 122 0 184 0L244 0L244-76L198-76C176-76 166-86 166-108L166-710"/><path id="s87" d="M516-530L424-530L269-90L114-530L22-530L215 0L323 0"/><path id="s40" d="M655 0L655-360L371-360L371-274L570-274C563-159 494-70 371-70C210-70 141-203 141-354C141-506 209-640 371-640C473-640 537-581 560-486L652-492C621-632 522-726 371-726C165-726 49-560 49-354C49-149 166 16 371 16C465 16 553-38 583-116L591 0"/><path id="s34" d="M21 0L117 0L187-201L485-201L555 0L651 0L395-710L277-710M217-287L336-633L455-287"/><path id="s19" d="M73-498L165-492C184-587 242-640 327-640C406-640 461-592 461-524C461-469 406-415 333-368C214-292 60-215 60 0L559 0L559-86L169-86C172-157 311-253 364-284C471-350 553-420 553-524C553-640 457-726 327-726C185-726 92-629 73-498"/><path id="s17" d="M336 16C509 16 618-127 618-354C618-583 509-726 336-726C163-726 54-583 54-354C54-127 163 16 336 16M146-354C146-537 214-640 336-640C458-640 526-537 526-354C526-172 458-70 336-70C214-70 146-172 146-354"/><path id="s21" d="M505-710L411-710L50-231L50-145L417-145L417 0L505 0L505-145L586-145L586-231L505-231M158-231L417-575L417-231"/><path id="s15" d="M47-110L47 0L156 0L156-110"/><path id="d26" d="M350 0L122 0L30-700L161-700L229-92L247-92L335-700L563-700L651-92L669-92L737-700L868-700L776 0L548 0L458-622L440-622"/><path id="d16" d="M194 0L66 0L66-700L311-700L432-90L450-90L571-700L816-700L816 0L688 0L688-603L670-603L550 0L332 0L212-603L194-603"/><path id="m91" d="M181 0L80 0L80-710L181-710L181-264L421-532L550-532L342-306L559 0L440 0L275-238L181-139"/><path id="m80" d="M194 0L93 0L93-710L194-710L194-451Q203-474 218-491Q242-518 276-531Q310-544 351-544Q407-544 446-518Q484-493 504-447Q523-402 523-343L523 0L422 0L422-317Q422-389 397-422Q371-456 321-456Q264-456 229-420Q194-384 194-314"/><path id="m68" d="M342 12Q298 12 263-3Q228-18 204-46Q189-63 179-83L176 0L82 0L82-710L183-710L183-457Q192-472 205-487Q228-512 264-528Q299-544 342-544Q410-544 460-510Q510-477 537-414Q564-352 564-266Q564-180 537-117Q510-55 460-21Q410 12 342 12M325-81Q388-81 423-130Q458-180 458-266Q458-353 423-402Q388-451 327-451Q282-451 250-429Q218-407 201-366Q183-325 183-266Q183-209 201-167Q218-126 250-103Q281-81 325-81"/><path id="m117" d="M234 0L121 0L18-532L124-532L187-121L257-457L343-457L413-121L476-532L582-532L480 0L366 0L300-311"/><path id="d44" d="M306 14Q232 14 173-16Q114-46 80-103Q46-160 46-240L46-256Q46-336 80-393Q114-450 173-480Q232-510 306-510Q380-510 439-480Q498-450 532-393Q566-336 566-256L566-240Q566-160 532-103Q498-46 439-16Q380 14 306 14M306-98Q364-98 402-135Q440-173 440-243L440-253Q440-323 403-360Q365-398 306-398Q248-398 210-360Q172-323 172-253L172-243Q172-173 210-135Q248-98 306-98"/><path id="d47" d="M196 0L70 0L70-496L194-496L194-440L212-440Q223-470 249-484Q274-498 308-498L368-498L368-386L306-386Q258-386 227-360Q196-335 196-282"/><path id="d40" d="M196 0L70 0L70-700L196-700L196-313L214-313L378-496L542-496L313-256L550 0L388 0L214-197L196-197"/><path id="d34" d="M296 14Q222 14 166-17Q109-49 78-106Q46-164 46-242L46-254Q46-332 77-389Q108-447 164-478Q220-510 294-510Q367-510 421-477Q475-445 505-387Q535-330 535-254L535-211L174-211Q176-160 212-128Q248-96 300-96Q353-96 378-119Q403-142 416-170L519-116Q505-90 479-59Q452-29 408-7Q364 14 296 14M175-305L407-305Q403-348 373-374Q342-400 293-400Q242-400 212-374Q182-348 175-305"/><path id="d48" d="M276 14Q179 14 117-28Q55-70 42-148L158-178Q165-143 182-123Q198-103 223-94Q247-86 276-86Q320-86 341-101Q362-117 362-140Q362-163 342-175Q322-188 278-196L250-201Q198-211 155-228Q112-246 86-277Q60-308 60-357Q60-431 114-470Q168-510 256-510Q339-510 394-473Q449-436 466-376L349-340Q341-378 317-394Q292-410 256-410Q220-410 201-397Q182-385 182-363Q182-339 202-327Q222-316 256-310L284-305Q340-295 386-278Q431-262 458-231Q484-201 484-149Q484-71 428-28Q371 14 276 14"/><path id="m93" d="M134 0L36 0L36-532L124-532L127-455Q137-488 157-510Q186-544 231-544Q279-544 304-510Q322-485 330-442Q341-483 364-509Q396-544 444-544Q507-544 536-500Q564-457 564-359L564 0L466 0L466-342Q466-406 453-431Q439-456 411-456Q393-456 379-444Q364-432 356-406Q348-381 348-340L348 0L252 0L252-342Q252-404 240-430Q227-456 198-456Q179-456 165-444Q151-432 143-406Q134-381 134-340"/><path id="d30" d="M224 14Q171 14 129-4Q87-23 63-58Q38-94 38-145Q38-196 63-230Q87-265 131-282Q174-300 230-300L366-300L366-328Q366-363 344-385Q322-408 274-408Q227-408 204-386Q181-365 174-331L58-370Q70-408 97-439Q123-471 168-490Q212-510 276-510Q374-510 431-461Q488-412 488-319L488-134Q488-104 516-104L556-104L556 0L472 0Q435 0 411-18Q387-36 387-66L387-67L368-67Q364-55 350-35Q336-16 306-1Q276 14 224 14M246-88Q299-88 333-117Q366-147 366-196L366-206L239-206Q204-206 184-191Q164-176 164-149Q164-122 185-105Q206-88 246-88"/><path id="d32" d="M303 14Q231 14 173-16Q114-46 80-103Q46-160 46-241L46-255Q46-336 80-393Q114-450 173-480Q231-510 303-510Q374-510 425-485Q476-460 508-416Q539-373 549-318L427-292Q423-322 409-346Q395-370 370-384Q344-398 306-398Q268-398 238-381Q207-365 190-332Q172-300 172-253L172-243Q172-196 190-163Q207-131 238-114Q268-98 306-98Q363-98 393-127Q422-157 430-205L552-176Q539-123 508-79Q476-36 425-11Q374 14 303 14"/><path id="m116" d="M363 0L237 0L45-532L154-532L300-107L446-532L555-532"/><path id="d35" d="M278 0L152 0L152-392L26-392L26-496L152-496L152-588Q152-639 183-669Q213-700 262-700L392-700L392-596L306-596Q278-596 278-566L278-496L408-496L408-392L278-392"/><path id="d37" d="M196 0L70 0L70-700L196-700L196-435L214-435Q222-451 239-467Q256-483 285-493Q313-504 357-504Q415-504 459-477Q502-451 526-404Q550-358 550-296L550 0L424 0L424-286Q424-342 397-370Q369-398 318-398Q260-398 228-359Q196-321 196-252"/><path id="m10" d="M313 0L83 0L83-710L289-710Q406-710 467-659Q528-608 528-517Q528-473 508-438Q488-404 450-384Q426-371 397-366Q437-361 468-347Q512-325 535-286Q558-248 558-197Q558-103 494-51Q429 0 313 0M188-312L188-98L314-98Q383-98 416-125Q449-153 449-202Q449-254 415-283Q380-312 314-312L188-312M188-612L188-409L291-409Q357-409 388-435Q419-462 419-510Q419-559 388-585Q357-612 291-612"/><path id="m35" d="M300 16Q215 16 157-27Q98-70 67-153Q36-236 36-354Q36-474 67-557Q98-640 157-683Q215-726 300-726Q385-726 444-683Q503-640 534-557Q564-474 564-354Q564-236 534-153Q503-70 444-27Q385 16 300 16M300-82Q350-82 385-112Q419-142 437-203Q455-264 455-354Q455-444 437-505Q419-567 385-597Q350-628 300-628Q250-628 216-597Q181-567 163-505Q145-444 145-354Q145-264 163-203Q181-142 216-112Q250-82 300-82"/><path id="m55" d="M241 0L104 0L28-710L133-710L187-138L254-630L346-630L413-138L467-710L572-710L496 0L359 0L300-432"/><path id="m21" d="M299 16Q222 16 163-26Q104-68 70-150Q36-233 36-354Q36-469 68-552Q100-635 160-680Q219-726 302-726Q369-726 420-697Q471-668 506-615Q540-562 555-491L446-484Q431-549 396-588Q360-627 303-627Q253-627 218-595Q182-564 164-503Q145-442 145-354Q145-267 164-206Q183-146 220-114Q256-83 308-83Q354-83 387-106Q420-130 439-172Q457-215 459-271L303-271L303-362L556-362L556 0L471 0L468-92Q463-82 458-72Q433-31 394-7Q355 16 299 16"/><path id="s56" d="M21-710L207 0L317 0L456-531L595 0L705 0L891-710L794-710L651-121L505-710L406-710L261-121L117-710"/><path id="s67" d="M80-710L80 0L158 0L161-74C190-21 254 12 328 12C466 12 552-95 552-265C552-435 466-542 328-542C257-542 195-511 166-462L166-710M158-265C158-387 217-464 310-464C403-464 462-387 462-265C462-145 403-70 310-70C217-70 158-145 158-265"/><path id="s90" d="M22-530L215-10L244-10L225 39C215 64 200 74 175 74L114 74L114 150L184 150C244 150 282 124 302 67L516-530L425-530L272-92L114-530"/><path id="s88" d="M456-530L364-530L239-95L114-530L22-530L185 0L293 0L410-400L527 0L635 0L798-530L706-530L581-95"/><path id="s54" d="M613-248L613-711L525-711L525-248C525-134 460-70 345-70C230-70 165-134 165-248L165-711L77-711L77-248C77-86 180 16 345 16C510 16 613-86 613-248"/></defs>
<defs>
  <clipPath id="aclip"><rect width="600" height="560" rx="20"/></clipPath>
  <linearGradient id="abg" x1="0" y1="0" x2="1" y2="1"><stop offset="0" stop-color="#0B1030"/><stop offset="1" stop-color="#151C4B"/></linearGradient>
  <radialGradient id="aglow"><stop offset="0" stop-color="#8FB2FF" stop-opacity=".16"/><stop offset="1" stop-color="#8FB2FF" stop-opacity="0"/></radialGradient>
</defs>
<g clip-path="url(#aclip)"><rect width="600" height="560" fill="url(#abg)"/><circle cx="600" cy="0" r="420" fill="url(#aglow)"/>
<g transform="translate(32 32)"><rect width="80" height="80" rx="20" fill="#8FB2FF" fill-opacity=".14" stroke="#8FB2FF" stroke-opacity=".55"/><g fill="#8FB2FF"><use href="#d15" transform="translate(29.16 54) scale(0.04)"/></g></g>
<g fill="#F2F5FF"><use href="#d15" transform="translate(134 72) scale(0.042)"/><use href="#d12" transform="translate(156.76 72) scale(0.042)"/><use href="#d6" transform="translate(167.85 72) scale(0.042)"/><use href="#d8" transform="translate(194.9 72) scale(0.042)"/><use href="#d23" transform="translate(218.17 72) scale(0.042)"/><use href="#d6" transform="translate(252.27 72) scale(0.042)"/><use href="#d22" transform="translate(279.32 72) scale(0.042)"/><use href="#d8" transform="translate(304.77 72) scale(0.042)"/><use href="#d8" transform="translate(338.71 72) scale(0.042)"/><use href="#d21" transform="translate(361.98 72) scale(0.042)"/><use href="#d19" transform="translate(388.52 72) scale(0.042)"/></g>
<g fill="#8C96C8"><use href="#m13" transform="translate(135 104) scale(0.016)"/><use href="#m15" transform="translate(145.6 104) scale(0.016)"/><use href="#m43" transform="translate(156.2 104) scale(0.016)"/><use href="#m1" transform="translate(166.8 104) scale(0.016)"/><use href="#m46" transform="translate(177.4 104) scale(0.016)"/><use href="#m48" transform="translate(188 104) scale(0.016)"/><use href="#m32" transform="translate(198.6 104) scale(0.016)"/><use href="#m15" transform="translate(209.2 104) scale(0.016)"/><use href="#m33" transform="translate(219.8 104) scale(0.016)"/><use href="#m48" transform="translate(230.4 104) scale(0.016)"/><use href="#m15" transform="translate(251.6 104) scale(0.016)"/><use href="#m46" transform="translate(262.2 104) scale(0.016)"/><use href="#m43" transform="translate(272.8 104) scale(0.016)"/><use href="#m179" transform="translate(294 104) scale(0.016)"/><use href="#m20" transform="translate(315.2 104) scale(0.016)"/><use href="#m49" transform="translate(325.8 104) scale(0.016)"/><use href="#m31" transform="translate(336.4 104) scale(0.016)"/><use href="#m31" transform="translate(347 104) scale(0.016)"/><use href="#m185" transform="translate(357.6 104) scale(0.016)"/><use href="#m47" transform="translate(368.2 104) scale(0.016)"/><use href="#m48" transform="translate(378.8 104) scale(0.016)"/><use href="#m1" transform="translate(389.4 104) scale(0.016)"/><use href="#m11" transform="translate(400 104) scale(0.016)"/><use href="#m30" transform="translate(410.6 104) scale(0.016)"/><use href="#m208" transform="translate(431.8 104) scale(0.016)"/><use href="#m1" transform="translate(453 104) scale(0.016)"/><use href="#m46" transform="translate(463.6 104) scale(0.016)"/><use href="#m11" transform="translate(474.2 104) scale(0.016)"/><use href="#m22" transform="translate(484.8 104) scale(0.016)"/><use href="#m23" transform="translate(495.4 104) scale(0.016)"/><use href="#m48" transform="translate(506 104) scale(0.016)"/><use href="#m15" transform="translate(516.6 104) scale(0.016)"/><use href="#m11" transform="translate(527.2 104) scale(0.016)"/><use href="#m48" transform="translate(537.8 104) scale(0.016)"/></g>
<g transform="translate(32 138)"><rect width="109.69999999999999" height="40" rx="20" fill="#3DDC97" fill-opacity=".12" stroke="#3DDC97" stroke-opacity=".5"/><circle class="pulse" cx="26" cy="20" r="6.5" fill="#3DDC97"/><g fill="#3DDC97"><use href="#m31" transform="translate(46 26.5) scale(0.018)"/><use href="#m23" transform="translate(58.3 26.5) scale(0.018)"/><use href="#m54" transform="translate(70.6 26.5) scale(0.018)"/><use href="#m15" transform="translate(82.9 26.5) scale(0.018)"/></g></g>
<g fill="#C9D1F7"><use href="#s53" transform="translate(32 226) scale(0.026)"/><use href="#s73" transform="translate(46.77 226) scale(0.026)"/><use href="#s70" transform="translate(61.51 226) scale(0.026)"/><use href="#s69" transform="translate(82.78 226) scale(0.026)"/><use href="#s70" transform="translate(98.35 226) scale(0.026)"/><use href="#s81" transform="translate(112.99 226) scale(0.026)"/><use href="#s66" transform="translate(128.69 226) scale(0.026)"/><use href="#s83" transform="translate(143.46 226) scale(0.026)"/><use href="#s85" transform="translate(153.03 226) scale(0.026)"/><use href="#s78" transform="translate(163.35 226) scale(0.026)"/><use href="#s70" transform="translate(185.79 226) scale(0.026)"/><use href="#s79" transform="translate(200.43 226) scale(0.026)"/><use href="#s85" transform="translate(214.91 226) scale(0.026)"/><use href="#s38" transform="translate(231.73 226) scale(0.026)"/><use href="#s51" transform="translate(247.44 226) scale(0.026)"/><use href="#s49" transform="translate(264.54 226) scale(0.026)"/><use href="#s71" transform="translate(287.97 226) scale(0.026)"/><use href="#s80" transform="translate(297.56 226) scale(0.026)"/><use href="#s83" transform="translate(312.51 226) scale(0.026)"/><use href="#s36" transform="translate(328.97 226) scale(0.026)"/><use href="#s80" transform="translate(347.22 226) scale(0.026)"/><use href="#s78" transform="translate(362.17 226) scale(0.026)"/><use href="#s81" transform="translate(384.48 226) scale(0.026)"/><use href="#s86" transform="translate(399.8 226) scale(0.026)"/><use href="#s85" transform="translate(414.25 226) scale(0.026)"/><use href="#s70" transform="translate(424.18 226) scale(0.026)"/><use href="#s83" transform="translate(438.82 226) scale(0.026)"/><use href="#s52" transform="translate(455.28 226) scale(0.026)"/><use href="#s68" transform="translate(472.15 226) scale(0.026)"/><use href="#s74" transform="translate(486.01 226) scale(0.026)"/><use href="#s70" transform="translate(492.41 226) scale(0.026)"/><use href="#s79" transform="translate(507.05 226) scale(0.026)"/><use href="#s68" transform="translate(521.79 226) scale(0.026)"/><use href="#s70" transform="translate(536.17 226) scale(0.026)"/></g><g fill="#C9D1F7"><use href="#s7" transform="translate(32 263) scale(0.026)"/><use href="#s38" transform="translate(54.67 263) scale(0.026)"/><use href="#s79" transform="translate(70.38 263) scale(0.026)"/><use href="#s72" transform="translate(85.12 263) scale(0.026)"/><use href="#s74" transform="translate(100.67 263) scale(0.026)"/><use href="#s79" transform="translate(106.67 263) scale(0.026)"/><use href="#s70" transform="translate(121.41 263) scale(0.026)"/><use href="#s70" transform="translate(136.18 263) scale(0.026)"/><use href="#s83" transform="translate(150.82 263) scale(0.026)"/><use href="#s74" transform="translate(160.78 263) scale(0.026)"/><use href="#s79" transform="translate(166.78 263) scale(0.026)"/><use href="#s72" transform="translate(181.53 263) scale(0.026)"/><use href="#s66" transform="translate(203.57 263) scale(0.026)"/><use href="#s85" transform="translate(217.25 263) scale(0.026)"/><use href="#s45" transform="translate(234.07 263) scale(0.026)"/><use href="#s42" transform="translate(249.18 263) scale(0.026)"/><use href="#s36" transform="translate(255.86 263) scale(0.026)"/><use href="#s38" transform="translate(273.85 263) scale(0.026)"/><use href="#s53" transform="translate(289.56 263) scale(0.026)"/><use href="#s27" transform="translate(304.58 263) scale(0.026)"/><use href="#s66" transform="translate(318.7 263) scale(0.026)"/><use href="#s85" transform="translate(332.38 263) scale(0.026)"/><use href="#s85" transform="translate(342.7 263) scale(0.026)"/><use href="#s70" transform="translate(352.63 263) scale(0.026)"/><use href="#s79" transform="translate(367.27 263) scale(0.026)"/><use href="#s69" transform="translate(382.01 263) scale(0.026)"/><use href="#s66" transform="translate(397.59 263) scale(0.026)"/><use href="#s79" transform="translate(412.35 263) scale(0.026)"/><use href="#s68" transform="translate(427.1 263) scale(0.026)"/><use href="#s70" transform="translate(441.47 263) scale(0.026)"/><use href="#s13" transform="translate(456.24 263) scale(0.026)"/><use href="#s78" transform="translate(468.02 263) scale(0.026)"/><use href="#s66" transform="translate(490.85 263) scale(0.026)"/><use href="#s83" transform="translate(505.62 263) scale(0.026)"/><use href="#s76" transform="translate(514.79 263) scale(0.026)"/><use href="#s84" transform="translate(528.86 263) scale(0.026)"/><use href="#s13" transform="translate(542.67 263) scale(0.026)"/></g><g fill="#C9D1F7"><use href="#s77" transform="translate(32 300) scale(0.026)"/><use href="#s70" transform="translate(39.12 300) scale(0.026)"/><use href="#s66" transform="translate(54.02 300) scale(0.026)"/><use href="#s87" transform="translate(68.35 300) scale(0.026)"/><use href="#s70" transform="translate(81.69 300) scale(0.026)"/><use href="#s13" transform="translate(96.45 300) scale(0.026)"/><use href="#s72" transform="translate(108.23 300) scale(0.026)"/><use href="#s83" transform="translate(123.78 300) scale(0.026)"/><use href="#s74" transform="translate(133.74 300) scale(0.026)"/><use href="#s70" transform="translate(140.13 300) scale(0.026)"/><use href="#s87" transform="translate(154.25 300) scale(0.026)"/><use href="#s66" transform="translate(167.72 300) scale(0.026)"/><use href="#s79" transform="translate(182.49 300) scale(0.026)"/><use href="#s68" transform="translate(197.23 300) scale(0.026)"/><use href="#s70" transform="translate(211.61 300) scale(0.026)"/><use href="#s84" transform="translate(226.38 300) scale(0.026)"/><use href="#s66" transform="translate(246.68 300) scale(0.026)"/><use href="#s79" transform="translate(261.45 300) scale(0.026)"/><use href="#s69" transform="translate(276.19 300) scale(0.026)"/><use href="#s40" transform="translate(298.27 300) scale(0.026)"/><use href="#s49" transform="translate(316.7 300) scale(0.026)"/><use href="#s34" transform="translate(331.81 300) scale(0.026)"/><use href="#s86" transform="translate(355.78 300) scale(0.026)"/><use href="#s79" transform="translate(370.75 300) scale(0.026)"/><use href="#s69" transform="translate(385.5 300) scale(0.026)"/><use href="#s70" transform="translate(401.07 300) scale(0.026)"/><use href="#s83" transform="translate(415.71 300) scale(0.026)"/></g><g fill="#C9D1F7"><use href="#s51" transform="translate(32 337) scale(0.026)"/><use href="#s70" transform="translate(49.11 337) scale(0.026)"/><use href="#s72" transform="translate(63.88 337) scale(0.026)"/><use href="#s86" transform="translate(79.42 337) scale(0.026)"/><use href="#s77" transform="translate(94.4 337) scale(0.026)"/><use href="#s66" transform="translate(101.78 337) scale(0.026)"/><use href="#s85" transform="translate(115.46 337) scale(0.026)"/><use href="#s74" transform="translate(125.78 337) scale(0.026)"/><use href="#s80" transform="translate(132.18 337) scale(0.026)"/><use href="#s79" transform="translate(147.13 337) scale(0.026)"/><use href="#s84" transform="translate(161.87 337) scale(0.026)"/><use href="#s19" transform="translate(182.18 337) scale(0.026)"/><use href="#s17" transform="translate(198.27 337) scale(0.026)"/><use href="#s19" transform="translate(215.74 337) scale(0.026)"/><use href="#s21" transform="translate(231.84 337) scale(0.026)"/><use href="#s15" transform="translate(248.37 337) scale(0.026)"/></g>
<line x1="32" y1="388" x2="568" y2="388" stroke="#fff" stroke-opacity=".08"/>
<g transform="translate(32 0)"><g fill="#8FB2FF"><use href="#d59" transform="translate(0 438) scale(0.04)"/></g><g fill="#8C96C8"><use href="#m111" transform="translate(0 468) scale(0.017)"/><use href="#m108" transform="translate(10.2 468) scale(0.017)"/><use href="#m73" transform="translate(20.4 468) scale(0.017)"/><use href="#m107" transform="translate(30.6 468) scale(0.017)"/><use href="#m107" transform="translate(51 468) scale(0.017)"/><use href="#m96" transform="translate(61.2 468) scale(0.017)"/><use href="#m92" transform="translate(71.4 468) scale(0.017)"/><use href="#m73" transform="translate(81.6 468) scale(0.017)"/><use href="#m108" transform="translate(91.8 468) scale(0.017)"/></g></g><g transform="translate(216 0)"><g fill="#8FB2FF"><use href="#d21" transform="translate(0 438) scale(0.04)"/><use href="#d15" transform="translate(25.28 438) scale(0.04)"/><use href="#d22" transform="translate(46.96 438) scale(0.04)"/></g><g fill="#8C96C8"><use href="#m73" transform="translate(0 468) scale(0.01433)"/><use href="#m94" transform="translate(8.6 468) scale(0.01433)"/><use href="#m78" transform="translate(17.2 468) scale(0.01433)"/><use href="#m96" transform="translate(25.8 468) scale(0.01433)"/><use href="#m107" transform="translate(34.4 468) scale(0.01433)"/><use href="#m69" transform="translate(43 468) scale(0.01433)"/><use href="#m73" transform="translate(51.6 468) scale(0.01433)"/><use href="#m71" transform="translate(60.2 468) scale(0.01433)"/><use href="#m81" transform="translate(77.4 468) scale(0.01433)"/><use href="#m94" transform="translate(86 468) scale(0.01433)"/><use href="#m43" transform="translate(103.2 468) scale(0.01433)"/><use href="#m96" transform="translate(111.8 468) scale(0.01433)"/><use href="#m108" transform="translate(120.4 468) scale(0.01433)"/><use href="#m110" transform="translate(129 468) scale(0.01433)"/><use href="#m79" transform="translate(137.6 468) scale(0.01433)"/><use href="#m107" transform="translate(146.2 468) scale(0.01433)"/><use href="#m73" transform="translate(154.8 468) scale(0.01433)"/><use href="#m108" transform="translate(163.4 468) scale(0.01433)"/></g></g><g transform="translate(400 0)"><g fill="#8FB2FF"><use href="#d4" transform="translate(0 438) scale(0.04)"/><use href="#d50" transform="translate(25.36 438) scale(0.04)"/><use href="#d33" transform="translate(50 438) scale(0.04)"/><use href="#d38" transform="translate(75.52 438) scale(0.04)"/><use href="#d49" transform="translate(86.16 438) scale(0.04)"/></g><g fill="#8C96C8"><use href="#m60" transform="translate(0 468) scale(0.017)"/><use href="#m104" transform="translate(10.2 468) scale(0.017)"/><use href="#m104" transform="translate(20.4 468) scale(0.017)"/><use href="#m73" transform="translate(30.6 468) scale(0.017)"/><use href="#m94" transform="translate(40.8 468) scale(0.017)"/><use href="#m71" transform="translate(51 468) scale(0.017)"/><use href="#m185" transform="translate(61.2 468) scale(0.017)"/><use href="#m96" transform="translate(71.4 468) scale(0.017)"/><use href="#m94" transform="translate(81.6 468) scale(0.017)"/><use href="#m92" transform="translate(91.8 468) scale(0.017)"/><use href="#m119" transform="translate(102 468) scale(0.017)"/><use href="#m92" transform="translate(122.4 468) scale(0.017)"/><use href="#m96" transform="translate(132.6 468) scale(0.017)"/><use href="#m79" transform="translate(142.8 468) scale(0.017)"/></g></g></g>
<rect x="1" y="1" width="598" height="558" rx="19" fill="none" stroke="#fff" stroke-opacity=".08" stroke-width="1.5"/>
<g transform="translate(0 584)"><defs>
  <clipPath id="bclip"><rect width="600" height="560" rx="20"/></clipPath>
  <linearGradient id="bbg" x1="0" y1="0" x2="1" y2="1"><stop offset="0" stop-color="#0B1030"/><stop offset="1" stop-color="#151C4B"/></linearGradient>
  <radialGradient id="bglow"><stop offset="0" stop-color="#FF6B7A" stop-opacity=".16"/><stop offset="1" stop-color="#FF6B7A" stop-opacity="0"/></radialGradient>
</defs>
<g clip-path="url(#bclip)"><rect width="600" height="560" fill="url(#bbg)"/><circle cx="600" cy="0" r="420" fill="url(#bglow)"/>
<g transform="translate(32 32)"><rect width="80" height="80" rx="20" fill="#FF6B7A" fill-opacity=".14" stroke="#FF6B7A" stroke-opacity=".55"/><g fill="#FF6B7A"><use href="#d22" transform="translate(27.88 54) scale(0.04)"/></g></g>
<g fill="#F2F5FF"><use href="#d22" transform="translate(134 72) scale(0.042)"/><use href="#d49" transform="translate(159.45 72) scale(0.042)"/><use href="#d44" transform="translate(177.85 72) scale(0.042)"/><use href="#d32" transform="translate(203.55 72) scale(0.042)"/><use href="#d40" transform="translate(228.16 72) scale(0.042)"/><use href="#d35" transform="translate(251.85 72) scale(0.042)"/><use href="#d38" transform="translate(268.99 72) scale(0.042)"/><use href="#d48" transform="translate(280.16 72) scale(0.042)"/><use href="#d37" transform="translate(302.17 72) scale(0.042)"/><use href="#d6" transform="translate(338.71 72) scale(0.042)"/><use href="#d37" transform="translate(365.76 72) scale(0.042)"/><use href="#d34" transform="translate(391.63 72) scale(0.042)"/><use href="#d48" transform="translate(415.86 72) scale(0.042)"/><use href="#d48" transform="translate(437.87 72) scale(0.042)"/></g>
<g fill="#8C96C8"><use href="#m10" transform="translate(135 104) scale(0.016)"/><use href="#m46" transform="translate(145.6 104) scale(0.016)"/><use href="#m35" transform="translate(156.2 104) scale(0.016)"/><use href="#m55" transform="translate(166.8 104) scale(0.016)"/><use href="#m47" transform="translate(177.4 104) scale(0.016)"/><use href="#m15" transform="translate(188 104) scale(0.016)"/><use href="#m46" transform="translate(198.6 104) scale(0.016)"/><use href="#m15" transform="translate(219.8 104) scale(0.016)"/><use href="#m33" transform="translate(230.4 104) scale(0.016)"/><use href="#m21" transform="translate(241 104) scale(0.016)"/><use href="#m23" transform="translate(251.6 104) scale(0.016)"/><use href="#m33" transform="translate(262.2 104) scale(0.016)"/><use href="#m15" transform="translate(272.8 104) scale(0.016)"/><use href="#m11" transform="translate(294 104) scale(0.016)"/><use href="#m31" transform="translate(304.6 104) scale(0.016)"/><use href="#m23" transform="translate(315.2 104) scale(0.016)"/><use href="#m15" transform="translate(325.8 104) scale(0.016)"/><use href="#m33" transform="translate(336.4 104) scale(0.016)"/><use href="#m48" transform="translate(347 104) scale(0.016)"/><use href="#m179" transform="translate(368.2 104) scale(0.016)"/><use href="#m13" transform="translate(389.4 104) scale(0.016)"/><use href="#m15" transform="translate(400 104) scale(0.016)"/><use href="#m54" transform="translate(410.6 104) scale(0.016)"/><use href="#m15" transform="translate(421.2 104) scale(0.016)"/><use href="#m31" transform="translate(431.8 104) scale(0.016)"/><use href="#m35" transform="translate(442.4 104) scale(0.016)"/><use href="#m43" transform="translate(453 104) scale(0.016)"/><use href="#m15" transform="translate(463.6 104) scale(0.016)"/><use href="#m46" transform="translate(474.2 104) scale(0.016)"/></g>
<g transform="translate(32 138)"><rect width="146.6" height="40" rx="20" fill="#8FB2FF" fill-opacity=".12" stroke="#8FB2FF" stroke-opacity=".5"/><path d="M18 20.5 L23.5 26 L33 15" fill="none" stroke="#8FB2FF" stroke-width="3.2" stroke-linecap="round" stroke-linejoin="round"/><g fill="#8FB2FF"><use href="#m47" transform="translate(46 26.5) scale(0.018)"/><use href="#m22" transform="translate(58.3 26.5) scale(0.018)"/><use href="#m23" transform="translate(70.6 26.5) scale(0.018)"/><use href="#m43" transform="translate(82.9 26.5) scale(0.018)"/><use href="#m43" transform="translate(95.2 26.5) scale(0.018)"/><use href="#m15" transform="translate(107.5 26.5) scale(0.018)"/><use href="#m13" transform="translate(119.8 26.5) scale(0.018)"/></g></g>
<g fill="#C9D1F7"><use href="#s51" transform="translate(32 226) scale(0.026)"/><use href="#s86" transform="translate(49.5 226) scale(0.026)"/><use href="#s79" transform="translate(64.47 226) scale(0.026)"/><use href="#s84" transform="translate(79.22 226) scale(0.026)"/><use href="#s85" transform="translate(99.52 226) scale(0.026)"/><use href="#s73" transform="translate(109.84 226) scale(0.026)"/><use href="#s70" transform="translate(124.59 226) scale(0.026)"/><use href="#s52" transform="translate(145.85 226) scale(0.026)"/><use href="#s85" transform="translate(161.69 226) scale(0.026)"/><use href="#s80" transform="translate(171.62 226) scale(0.026)"/><use href="#s68" transform="translate(186.7 226) scale(0.026)"/><use href="#s76" transform="translate(200.95 226) scale(0.026)"/><use href="#s71" transform="translate(215.14 226) scale(0.026)"/><use href="#s74" transform="translate(225.52 226) scale(0.026)"/><use href="#s84" transform="translate(231.91 226) scale(0.026)"/><use href="#s73" transform="translate(245.59 226) scale(0.026)"/><use href="#s70" transform="translate(267.22 226) scale(0.026)"/><use href="#s79" transform="translate(281.86 226) scale(0.026)"/><use href="#s72" transform="translate(296.6 226) scale(0.026)"/><use href="#s74" transform="translate(312.15 226) scale(0.026)"/><use href="#s79" transform="translate(318.16 226) scale(0.026)"/><use href="#s70" transform="translate(332.9 226) scale(0.026)"/><use href="#s74" transform="translate(354.17 226) scale(0.026)"/><use href="#s79" transform="translate(360.17 226) scale(0.026)"/><use href="#s56" transform="translate(381.8 226) scale(0.026)"/><use href="#s70" transform="translate(404.22 226) scale(0.026)"/><use href="#s67" transform="translate(418.46 226) scale(0.026)"/><use href="#s34" transform="translate(433.78 226) scale(0.026)"/><use href="#s84" transform="translate(450.86 226) scale(0.026)"/><use href="#s84" transform="translate(464.67 226) scale(0.026)"/><use href="#s70" transform="translate(478.47 226) scale(0.026)"/><use href="#s78" transform="translate(493.11 226) scale(0.026)"/><use href="#s67" transform="translate(515.94 226) scale(0.026)"/><use href="#s77" transform="translate(531.51 226) scale(0.026)"/><use href="#s90" transform="translate(538.25 226) scale(0.026)"/></g><g fill="#C9D1F7"><use href="#s88" transform="translate(32 263) scale(0.026)"/><use href="#s80" transform="translate(52.67 263) scale(0.026)"/><use href="#s83" transform="translate(67.62 263) scale(0.026)"/><use href="#s76" transform="translate(76.8 263) scale(0.026)"/><use href="#s70" transform="translate(90.86 263) scale(0.026)"/><use href="#s83" transform="translate(105.5 263) scale(0.026)"/><use href="#s84" transform="translate(114.42 263) scale(0.026)"/><use href="#s67" transform="translate(134.73 263) scale(0.026)"/><use href="#s70" transform="translate(150.3 263) scale(0.026)"/><use href="#s73" transform="translate(164.94 263) scale(0.026)"/><use href="#s74" transform="translate(180.07 263) scale(0.026)"/><use href="#s79" transform="translate(186.08 263) scale(0.026)"/><use href="#s69" transform="translate(200.82 263) scale(0.026)"/><use href="#s66" transform="translate(222.89 263) scale(0.026)"/><use href="#s51" transform="translate(244.37 263) scale(0.026)"/><use href="#s70" transform="translate(261.48 263) scale(0.026)"/><use href="#s66" transform="translate(276.37 263) scale(0.026)"/><use href="#s68" transform="translate(291.09 263) scale(0.026)"/><use href="#s85" transform="translate(304.69 263) scale(0.026)"/><use href="#s54" transform="translate(321.51 263) scale(0.026)"/><use href="#s42" transform="translate(339.45 263) scale(0.026)"/><use href="#s13" transform="translate(346.52 263) scale(0.026)"/><use href="#s84" transform="translate(358.3 263) scale(0.026)"/><use href="#s80" transform="translate(372.11 263) scale(0.026)"/><use href="#s85" transform="translate(393.69 263) scale(0.026)"/><use href="#s73" transform="translate(404.01 263) scale(0.026)"/><use href="#s70" transform="translate(418.75 263) scale(0.026)"/><use href="#s67" transform="translate(440.02 263) scale(0.026)"/><use href="#s80" transform="translate(455.59 263) scale(0.026)"/><use href="#s66" transform="translate(470.8 263) scale(0.026)"/><use href="#s83" transform="translate(485.57 263) scale(0.026)"/><use href="#s69" transform="translate(494.49 263) scale(0.026)"/></g><g fill="#C9D1F7"><use href="#s84" transform="translate(32 300) scale(0.026)"/><use href="#s85" transform="translate(45.03 300) scale(0.026)"/><use href="#s66" transform="translate(55.35 300) scale(0.026)"/><use href="#s90" transform="translate(69.67 300) scale(0.026)"/><use href="#s84" transform="translate(83.01 300) scale(0.026)"/><use href="#s83" transform="translate(103.32 300) scale(0.026)"/><use href="#s70" transform="translate(112.24 300) scale(0.026)"/><use href="#s84" transform="translate(127 300) scale(0.026)"/><use href="#s81" transform="translate(140.68 300) scale(0.026)"/><use href="#s80" transform="translate(156.25 300) scale(0.026)"/><use href="#s79" transform="translate(171.2 300) scale(0.026)"/><use href="#s84" transform="translate(185.95 300) scale(0.026)"/><use href="#s74" transform="translate(199.23 300) scale(0.026)"/><use href="#s87" transform="translate(205.63 300) scale(0.026)"/><use href="#s70" transform="translate(218.97 300) scale(0.026)"/><use href="#s88" transform="translate(240.23 300) scale(0.026)"/><use href="#s73" transform="translate(261.55 300) scale(0.026)"/><use href="#s74" transform="translate(276.69 300) scale(0.026)"/><use href="#s77" transform="translate(283.08 300) scale(0.026)"/><use href="#s70" transform="translate(290.21 300) scale(0.026)"/><use href="#s74" transform="translate(311.47 300) scale(0.026)"/><use href="#s85" transform="translate(316.83 300) scale(0.026)"/><use href="#s85" transform="translate(333.65 300) scale(0.026)"/><use href="#s73" transform="translate(343.97 300) scale(0.026)"/><use href="#s74" transform="translate(359.11 300) scale(0.026)"/><use href="#s79" transform="translate(365.11 300) scale(0.026)"/><use href="#s76" transform="translate(379.72 300) scale(0.026)"/><use href="#s84" transform="translate(393.79 300) scale(0.026)"/><use href="#s15" transform="translate(407.6 300) scale(0.026)"/></g>
<line x1="32" y1="351" x2="568" y2="351" stroke="#fff" stroke-opacity=".08"/>
<g transform="translate(32 0)"><g fill="#FF6B7A"><use href="#d26" transform="translate(0 401) scale(0.04)"/><use href="#d4" transform="translate(35.2 401) scale(0.04)"/><use href="#d22" transform="translate(60.56 401) scale(0.04)"/><use href="#d16" transform="translate(84.8 401) scale(0.04)"/></g><g fill="#8C96C8"><use href="#m47" transform="translate(0 431) scale(0.01433)"/><use href="#m110" transform="translate(8.6 431) scale(0.01433)"/><use href="#m96" transform="translate(17.2 431) scale(0.01433)"/><use href="#m69" transform="translate(25.8 431) scale(0.01433)"/><use href="#m91" transform="translate(34.4 431) scale(0.01433)"/><use href="#m78" transform="translate(43 431) scale(0.01433)"/><use href="#m81" transform="translate(51.6 431) scale(0.01433)"/><use href="#m108" transform="translate(60.2 431) scale(0.01433)"/><use href="#m80" transform="translate(68.8 431) scale(0.01433)"/><use href="#m81" transform="translate(86 431) scale(0.01433)"/><use href="#m94" transform="translate(94.6 431) scale(0.01433)"/><use href="#m185" transform="translate(103.2 431) scale(0.01433)"/><use href="#m68" transform="translate(111.8 431) scale(0.01433)"/><use href="#m107" transform="translate(120.4 431) scale(0.01433)"/><use href="#m96" transform="translate(129 431) scale(0.01433)"/><use href="#m117" transform="translate(137.6 431) scale(0.01433)"/><use href="#m108" transform="translate(146.2 431) scale(0.01433)"/><use href="#m73" transform="translate(154.8 431) scale(0.01433)"/><use href="#m107" transform="translate(163.4 431) scale(0.01433)"/></g></g><g transform="translate(216 0)"><g fill="#FF6B7A"><use href="#d26" transform="translate(0 401) scale(0.04)"/><use href="#d44" transform="translate(35.68 401) scale(0.04)"/><use href="#d47" transform="translate(60.16 401) scale(0.04)"/><use href="#d40" transform="translate(76 401) scale(0.04)"/><use href="#d34" transform="translate(97.36 401) scale(0.04)"/><use href="#d47" transform="translate(120.44 401) scale(0.04)"/><use href="#d48" transform="translate(135.8 401) scale(0.04)"/></g><g fill="#8C96C8"><use href="#m96" transform="translate(0 431) scale(0.01509)"/><use href="#m78" transform="translate(9.05 431) scale(0.01509)"/><use href="#m78" transform="translate(18.11 431) scale(0.01509)"/><use href="#m110" transform="translate(36.21 431) scale(0.01509)"/><use href="#m80" transform="translate(45.26 431) scale(0.01509)"/><use href="#m73" transform="translate(54.32 431) scale(0.01509)"/><use href="#m93" transform="translate(72.42 431) scale(0.01509)"/><use href="#m60" transform="translate(81.47 431) scale(0.01509)"/><use href="#m81" transform="translate(90.53 431) scale(0.01509)"/><use href="#m94" transform="translate(99.58 431) scale(0.01509)"/><use href="#m110" transform="translate(117.68 431) scale(0.01509)"/><use href="#m80" transform="translate(126.74 431) scale(0.01509)"/><use href="#m107" transform="translate(135.79 431) scale(0.01509)"/><use href="#m73" transform="translate(144.84 431) scale(0.01509)"/><use href="#m60" transform="translate(153.89 431) scale(0.01509)"/><use href="#m71" transform="translate(162.95 431) scale(0.01509)"/></g></g><g transform="translate(400 0)"><g fill="#FF6B7A"><use href="#d21" transform="translate(0 401) scale(0.04)"/><use href="#d34" transform="translate(25.28 401) scale(0.04)"/><use href="#d30" transform="translate(48.36 401) scale(0.04)"/><use href="#d32" transform="translate(71.08 401) scale(0.04)"/><use href="#d49" transform="translate(93.88 401) scale(0.04)"/></g><g fill="#8C96C8"><use href="#m107" transform="translate(0 431) scale(0.017)"/><use href="#m73" transform="translate(10.2 431) scale(0.017)"/><use href="#m108" transform="translate(20.4 431) scale(0.017)"/><use href="#m104" transform="translate(30.6 431) scale(0.017)"/><use href="#m96" transform="translate(40.8 431) scale(0.017)"/><use href="#m94" transform="translate(51 431) scale(0.017)"/><use href="#m108" transform="translate(61.2 431) scale(0.017)"/><use href="#m81" transform="translate(71.4 431) scale(0.017)"/><use href="#m116" transform="translate(81.6 431) scale(0.017)"/><use href="#m73" transform="translate(91.8 431) scale(0.017)"/><use href="#m68" transform="translate(112.2 431) scale(0.017)"/><use href="#m96" transform="translate(122.4 431) scale(0.017)"/><use href="#m60" transform="translate(132.6 431) scale(0.017)"/><use href="#m107" transform="translate(142.8 431) scale(0.017)"/><use href="#m71" transform="translate(153 431) scale(0.017)"/></g></g></g>
<rect x="1" y="1" width="598" height="558" rx="19" fill="none" stroke="#fff" stroke-opacity=".08" stroke-width="1.5"/>
</g>
</svg>
