<svg xmlns="http://www.w3.org/2000/svg" width="600" height="150" viewBox="0 0 600 150" role="img" aria-label="Riven website — Next.js 16, TypeScript, Tailwind, Framer Motion and three.js.">
<title>Riven website — Next.js 16, TypeScript, Tailwind, Framer Motion and three.js.</title>
<style>
.spin{animation:spin 1.6s linear infinite;transform-box:fill-box;transform-origin:center}
.tw{animation:tw ease-in-out infinite alternate}
.fade{opacity:0;animation:fadeUp .8s ease-out forwards}
.pulse{animation:pulse 1.6s ease-in-out infinite;transform-box:fill-box;transform-origin:center}
.flk{animation:flk 2.4s ease-in-out infinite alternate}
.petal{animation:fall linear infinite;transform-box:fill-box;transform-origin:center}
@keyframes spin{to{transform:rotate(360deg)}}
@keyframes tw{from{opacity:.12}to{opacity:.95}}
@keyframes fadeUp{from{opacity:0;transform:translateY(8px)}to{opacity:1;transform:none}}
@keyframes pulse{0%,100%{opacity:1;transform:scale(1)}50%{opacity:.35;transform:scale(.7)}}
@keyframes flk{0%{opacity:.5}40%{opacity:1}70%{opacity:.7}100%{opacity:.95}}
@keyframes fall{from{transform:translate(0,0) rotate(0deg)}to{transform:translate(-260px,820px) rotate(600deg)}}
@media (prefers-reduced-motion:reduce){*{animation:none!important}.fade{opacity:1}}</style>
<defs><path id="m11" d="M303 16Q217 16 158-29Q98-74 67-157Q36-240 36-354Q36-469 67-552Q98-635 158-680Q217-726 303-726Q400-726 467-662Q533-598 554-483L444-477Q429-551 392-589Q354-628 303-628Q251-628 216-596Q181-564 163-503Q145-442 145-354Q145-267 163-206Q181-146 216-114Q251-82 303-82Q358-82 397-124Q436-166 449-247L558-242Q540-120 473-52Q406 16 303 16"/><path id="m35" d="M300 16Q215 16 157-27Q98-70 67-153Q36-236 36-354Q36-474 67-557Q98-640 157-683Q215-726 300-726Q385-726 444-683Q503-640 534-557Q564-474 564-354Q564-236 534-153Q503-70 444-27Q385 16 300 16M300-82Q350-82 385-112Q419-142 437-203Q455-264 455-354Q455-444 437-505Q419-567 385-597Q350-628 300-628Q250-628 216-597Q181-567 163-505Q145-444 145-354Q145-264 163-203Q181-142 216-112Q250-82 300-82"/><path id="m32" d="M340-86L260-86L149-548L149 0L48 0L48-710L188-710L300-253L412-710L552-710L552 0L451 0L451-548"/><path id="m43" d="M191 0L86 0L86-710L306-710Q380-710 436-683Q491-656 522-606Q552-557 552-489Q552-421 522-371Q491-322 436-295Q380-269 306-269L191-269L191 0M191-611L191-368L295-368Q371-368 407-399Q443-430 443-489Q443-549 407-580Q371-611 295-611"/><path id="m1" d="M133 0L24 0L232-710L368-710L576 0L467 0L416-185L184-185L133 0M211-282L389-282L300-601"/><path id="m33" d="M171 0L68 0L68-710L196-710L429-150L429-710L532-710L532 0L404 0L171-560"/><path id="m57" d="M353 0L248 0L248-292L37-710L153-710L300-400L447-710L563-710L353-292"/><path id="m55" d="M241 0L104 0L28-710L133-710L187-138L254-630L346-630L413-138L467-710L572-710L496 0L359 0L300-432"/><path id="m15" d="M532 0L88 0L88-710L524-710L524-611L193-611L193-404L512-404L512-308L193-308L193-99L532-99"/><path id="m10" d="M313 0L83 0L83-710L289-710Q406-710 467-659Q528-608 528-517Q528-473 508-438Q488-404 450-384Q426-371 397-366Q437-361 468-347Q512-325 535-286Q558-248 558-197Q558-103 494-51Q429 0 313 0M188-312L188-98L314-98Q383-98 416-125Q449-153 449-202Q449-254 415-283Q380-312 314-312L188-312M188-612L188-409L291-409Q357-409 388-435Q419-462 419-510Q419-559 388-585Q357-612 291-612"/><path id="m47" d="M309 16Q232 16 175-15Q117-46 83-101Q49-157 43-231L151-238Q158-187 179-152Q200-117 234-99Q268-82 313-82Q357-82 387-93Q417-105 433-127Q449-149 449-181Q449-213 434-236Q419-259 380-278Q341-298 266-319Q193-339 147-364Q101-390 80-427Q59-465 59-520Q59-581 88-627Q116-674 170-700Q223-726 298-726Q372-726 425-697Q477-668 508-616Q538-565 545-496L437-490Q432-531 415-562Q397-593 367-610Q337-628 295-628Q236-628 202-600Q167-572 167-525Q167-495 181-474Q195-454 230-438Q265-423 328-405Q413-382 463-351Q513-321 535-280Q557-239 557-181Q557-123 526-78Q495-33 440-8Q384 16 309 16"/><path id="m23" d="M522 0L78 0L78-99L248-99L248-611L78-611L78-710L522-710L522-611L352-611L352-99L522-99"/><path id="m48" d="M352 0L248 0L248-611L40-611L40-710L560-710L560-611L352-611"/><path id="d21" d="M198 0L66 0L66-700L370-700Q436-700 485-677Q534-654 561-612Q588-570 588-513L588-501Q588-438 558-399Q528-360 484-342L484-324Q524-322 546-296Q568-271 568-229L568 0L436 0L436-210Q436-234 424-249Q411-264 382-264L198-264L198 0M198-580L198-384L356-384Q403-384 430-409Q456-435 456-477L456-487Q456-529 430-554Q404-580 356-580"/><path id="d38" d="M196 0L70 0L70-496L196-496L196 0M133-554Q99-554 76-576Q52-598 52-634Q52-670 76-692Q99-714 133-714Q168-714 191-692Q214-670 214-634Q214-598 191-576Q168-554 133-554"/><path id="d51" d="M374 0L174 0L16-496L150-496L265-92L283-92L398-496L532-496"/><path id="d34" d="M296 14Q222 14 166-17Q109-49 78-106Q46-164 46-242L46-254Q46-332 77-389Q108-447 164-478Q220-510 294-510Q367-510 421-477Q475-445 505-387Q535-330 535-254L535-211L174-211Q176-160 212-128Q248-96 300-96Q353-96 378-119Q403-142 416-170L519-116Q505-90 479-59Q452-29 408-7Q364 14 296 14M175-305L407-305Q403-348 373-374Q342-400 293-400Q242-400 212-374Q182-348 175-305"/><path id="d43" d="M196 0L70 0L70-496L194-496L194-431L212-431Q224-457 257-480Q290-504 357-504Q415-504 459-477Q502-451 526-404Q550-358 550-296L550 0L424 0L424-286Q424-342 397-370Q369-398 318-398Q260-398 228-359Q196-321 196-252"/><path id="d52" d="M319 0L110 0L40-496L165-496L209-85L227-85L291-496L493-496L557-85L575-85L619-496L744-496L674 0L465 0L401-411L383-411"/><path id="d31" d="M368 14Q301 14 265-9Q229-32 212-60L194-60L194 0L70 0L70-700L196-700L196-439L214-439Q225-457 244-473Q262-489 293-499Q323-510 368-510Q428-510 479-480Q530-451 561-394Q592-337 592-256L592-240Q592-159 561-102Q530-45 479-15Q428 14 368 14M330-96Q388-96 427-133Q466-171 466-243L466-253Q466-325 428-362Q389-400 330-400Q272-400 233-362Q194-325 194-253L194-243Q194-171 233-133Q272-96 330-96"/><path id="d48" d="M276 14Q179 14 117-28Q55-70 42-148L158-178Q165-143 182-123Q198-103 223-94Q247-86 276-86Q320-86 341-101Q362-117 362-140Q362-163 342-175Q322-188 278-196L250-201Q198-211 155-228Q112-246 86-277Q60-308 60-357Q60-431 114-470Q168-510 256-510Q339-510 394-473Q449-436 466-376L349-340Q341-378 317-394Q292-410 256-410Q220-410 201-397Q182-385 182-363Q182-339 202-327Q222-316 256-310L284-305Q340-295 386-278Q431-262 458-231Q484-201 484-149Q484-71 428-28Q371 14 276 14"/><path id="d49" d="M400 0L260 0Q211 0 181-30Q150-61 150-112L150-392L26-392L26-496L150-496L150-650L276-650L276-496L412-496L412-392L276-392L276-134Q276-104 304-104L400-104"/><path id="s47" d="M92-710L92 0L180 0L180-595L519 0L647 0L647-710L559-710L559-104L214-710"/><path id="s70" d="M47-265C47-96 143 12 290 12C392 12 482-50 513-150L421-157C397-102 346-70 290-70C200-70 146-132 138-238L521-238L520-277C511-467 406-542 290-542C143-542 47-434 47-265M140-314C154-406 207-460 290-460C353-460 412-424 427-314"/><path id="s89" d="M425-530L294-338L162-530L57-530L241-272L47 0L152 0L294-205L435 0L540 0L348-271L531-530"/><path id="s85" d="M132-650L132-530L55-530L55-454L132-454L132-142C132-51 185 0 281 0L358 0L358-76L281-76C239-76 218-98 218-142L218-454L360-454L360-530L218-530L218-650"/><path id="s15" d="M47-110L47 0L156 0L156-110"/><path id="s75" d="M181 3L181-530L95-530L95 3C95 46 72 74 37 74L-5 74L-5 150L47 150C136 150 181 92 181 3M93-613L183-613L183-710L93-710"/><path id="s84" d="M384-366L474-372C457-475 370-542 264-542C142-542 60-478 60-376C60-272 164-245 260-223C320-209 394-203 394-140C394-86 327-70 277-70C198-70 148-110 137-173L47-167C55-57 151 12 277 12C377 12 484-32 484-135C484-241 395-274 275-297C219-308 150-329 150-381C150-431 197-460 255-460C313-460 372-425 384-366"/><path id="s18" d="M97-600L40-600L40-525L187-525L187 0L275 0L275-710L206-710C206-633 173-600 97-600"/><path id="s23" d="M469-551L561-558C529-667 441-726 333-726C128-726 60-526 60-313C60-202 85-112 136-60C188-6 251 16 313 16C460 16 564-81 564-236C564-382 469-484 328-484C252-484 189-449 150-385C164-549 228-640 333-640C399-640 448-608 469-551M156-236C157-331 226-398 322-398C410-398 472-331 472-236C472-139 407-70 315-70C220-70 154-139 156-236"/><path id="s13" d="M156 0L156-110L47-110L47 0L88 0L49 155L99 155"/><path id="s53" d="M553-710L25-710L25-624L245-624L245 0L333 0L333-624L553-624"/><path id="s90" d="M22-530L215-10L244-10L225 39C215 64 200 74 175 74L114 74L114 150L184 150C244 150 282 124 302 67L516-530L425-530L272-92L114-530"/><path id="s81" d="M80 150L166 150L166-71C195-16 250 12 323 12C482 12 552-120 552-265C552-410 482-542 323-542C246-542 190-510 161-453L158-530L80-530M156-265C156-363 200-460 308-460C417-460 460-364 460-265C460-166 417-70 308-70C200-70 156-167 156-265"/><path id="s52" d="M151-233L59-227C71-83 185 12 341 12C469 12 590-56 590-188C590-297 486-361 358-397C271-421 166-444 166-531C166-598 225-640 305-640C402-640 470-582 483-494L575-500C560-631 459-726 306-726C170-726 74-651 74-531C74-416 180-359 295-330C436-294 498-251 498-179C498-109 438-74 348-74C236-74 170-138 151-233"/><path id="s68" d="M421-352L511-358C497-472 398-542 290-542C143-542 47-434 47-265C47-96 143 12 290 12C402 12 499-62 516-182L425-188C413-113 356-70 290-70C193-70 137-143 137-265C137-387 193-460 290-460C353-460 410-420 421-352"/><path id="s83" d="M80-530L80 0L166 0L166-316C166-407 203-454 284-454L336-454L336-530L284-530C215-530 176-500 159-435L156-530"/><path id="s74" d="M80-530L80 0L166 0L166-530M78-613L168-613L168-710L78-710"/><path id="s66" d="M56-374L147-367C163-427 207-460 273-460C358-460 400-417 401-329L247-299C129-276 47-249 47-139C47-44 133 12 238 12C322 12 380-33 402-81C402-17 450 0 504 0L541 0L541-76L519-76C497-76 487-86 487-108L487-320C487-462 410-542 273-542C160-542 77-477 56-374M137-139C137-213 201-217 279-231L403-253L403-248C403-124 335-64 249-64C172-64 137-98 137-139"/><path id="s77" d="M80-710L80-104C80-42 122 0 184 0L244 0L244-76L198-76C176-76 166-86 166-108L166-710"/><path id="s88" d="M456-530L364-530L239-95L114-530L22-530L185 0L293 0L410-400L527 0L635 0L798-530L706-530L581-95"/><path id="s79" d="M80-530L80 0L166 0L166-317C166-414 221-466 305-466C384-466 416-414 416-317L416 0L502 0L502-341C502-453 444-542 323-542C250-542 188-510 161-439L158-530"/><path id="s69" d="M519-710L433-710L433-462C404-511 342-542 271-542C133-542 47-435 47-265C47-95 133 12 271 12C345 12 409-21 438-74L441 0L519 0M137-265C137-387 196-464 289-464C382-464 441-387 441-265C441-145 382-70 289-70C196-70 137-145 137-265"/><path id="s39" d="M92-710L92 0L180 0L180-305L521-305L521-389L180-389L180-624L539-624L539-710"/><path id="s78" d="M80-530L80 0L166 0L166-317C166-410 214-466 295-466C358-466 396-410 396-317L396 0L482 0L482-317C482-412 529-466 611-466C675-466 712-412 712-317L712 0L798 0L798-341C798-469 736-542 629-542C546-542 491-503 468-432C445-502 390-542 313-542C240-542 186-506 161-442L158-530"/><path id="s46" d="M92-710L92 0L180 0L180-533L380 0L498 0L698-533L698 0L786 0L786-710L664-710L439-96L214-710"/><path id="s80" d="M290 12C437 12 533-96 533-265C533-434 437-542 290-542C143-542 47-434 47-265C47-96 143 12 290 12M137-265C137-387 193-460 290-460C387-460 443-387 443-265C443-143 387-70 290-70C193-70 137-143 137-265"/><path id="s73" d="M80-710L80 0L166 0L166-311C166-408 221-460 305-460C384-460 416-408 416-311L416 0L502 0L502-341C502-453 444-542 323-542C259-542 197-516 166-460L166-710"/></defs>
<defs>
  <clipPath id="cardclip"><rect width="600" height="150" rx="20"/></clipPath>
  <linearGradient id="cardbg" x1="0" y1="0" x2="1" y2="1"><stop offset="0" stop-color="#0B1030"/><stop offset="1" stop-color="#151C4B"/></linearGradient>
  <radialGradient id="glow"><stop offset="0" stop-color="#FF6B7A" stop-opacity=".16"/><stop offset="1" stop-color="#FF6B7A" stop-opacity="0"/></radialGradient>
</defs>
<g clip-path="url(#cardclip)"><rect width="600" height="150" fill="url(#cardbg)"/><circle cx="600" cy="0" r="120" fill="url(#glow)"/>
<g fill="#FF6B7A"><use href="#m11" transform="translate(28 42) scale(0.011)"/><use href="#m35" transform="translate(36.1 42) scale(0.011)"/><use href="#m32" transform="translate(44.2 42) scale(0.011)"/><use href="#m43" transform="translate(52.3 42) scale(0.011)"/><use href="#m1" transform="translate(60.4 42) scale(0.011)"/><use href="#m33" transform="translate(68.5 42) scale(0.011)"/><use href="#m57" transform="translate(76.6 42) scale(0.011)"/><use href="#m55" transform="translate(92.8 42) scale(0.011)"/><use href="#m15" transform="translate(100.9 42) scale(0.011)"/><use href="#m10" transform="translate(109 42) scale(0.011)"/><use href="#m47" transform="translate(117.1 42) scale(0.011)"/><use href="#m23" transform="translate(125.2 42) scale(0.011)"/><use href="#m48" transform="translate(133.3 42) scale(0.011)"/><use href="#m15" transform="translate(141.4 42) scale(0.011)"/></g>
<g fill="#F2F5FF"><use href="#d21" transform="translate(28 82) scale(0.028)"/><use href="#d38" transform="translate(45.7 82) scale(0.028)"/><use href="#d51" transform="translate(53.14 82) scale(0.028)"/><use href="#d34" transform="translate(68.1 82) scale(0.028)"/><use href="#d43" transform="translate(84.25 82) scale(0.028)"/><use href="#d52" transform="translate(108.61 82) scale(0.028)"/><use href="#d34" transform="translate(130.51 82) scale(0.028)"/><use href="#d31" transform="translate(146.66 82) scale(0.028)"/><use href="#d48" transform="translate(164.53 82) scale(0.028)"/><use href="#d38" transform="translate(179.2 82) scale(0.028)"/><use href="#d49" transform="translate(186.65 82) scale(0.028)"/><use href="#d34" transform="translate(198.91 82) scale(0.028)"/></g>
<g fill="#C9D1F7"><use href="#s47" transform="translate(28 116) scale(0.016)"/><use href="#s70" transform="translate(39.5 116) scale(0.016)"/><use href="#s89" transform="translate(47.79 116) scale(0.016)"/><use href="#s85" transform="translate(56.86 116) scale(0.016)"/><use href="#s15" transform="translate(63.54 116) scale(0.016)"/><use href="#s75" transform="translate(66.78 116) scale(0.016)"/><use href="#s84" transform="translate(70.96 116) scale(0.016)"/><use href="#s18" transform="translate(83.46 116) scale(0.016)"/><use href="#s23" transform="translate(89.62 116) scale(0.016)"/><use href="#s13" transform="translate(99.6 116) scale(0.016)"/><use href="#s53" transform="translate(106.85 116) scale(0.016)"/><use href="#s90" transform="translate(115.94 116) scale(0.016)"/><use href="#s81" transform="translate(124.54 116) scale(0.016)"/><use href="#s70" transform="translate(134.13 116) scale(0.016)"/><use href="#s52" transform="translate(143.22 116) scale(0.016)"/><use href="#s68" transform="translate(153.6 116) scale(0.016)"/><use href="#s83" transform="translate(162.37 116) scale(0.016)"/><use href="#s74" transform="translate(168.5 116) scale(0.016)"/><use href="#s81" transform="translate(172.19 116) scale(0.016)"/><use href="#s85" transform="translate(181.3 116) scale(0.016)"/><use href="#s13" transform="translate(187.65 116) scale(0.016)"/><use href="#s53" transform="translate(194.9 116) scale(0.016)"/><use href="#s66" transform="translate(203.5 116) scale(0.016)"/><use href="#s74" transform="translate(212.72 116) scale(0.016)"/><use href="#s77" transform="translate(216.66 116) scale(0.016)"/><use href="#s88" transform="translate(220.8 116) scale(0.016)"/><use href="#s74" transform="translate(233.92 116) scale(0.016)"/><use href="#s79" transform="translate(237.62 116) scale(0.016)"/><use href="#s69" transform="translate(246.69 116) scale(0.016)"/><use href="#s13" transform="translate(256.27 116) scale(0.016)"/><use href="#s39" transform="translate(263.52 116) scale(0.016)"/><use href="#s83" transform="translate(272.98 116) scale(0.016)"/><use href="#s66" transform="translate(278.78 116) scale(0.016)"/><use href="#s78" transform="translate(287.87 116) scale(0.016)"/><use href="#s70" transform="translate(301.68 116) scale(0.016)"/><use href="#s83" transform="translate(310.69 116) scale(0.016)"/><use href="#s46" transform="translate(320.82 116) scale(0.016)"/><use href="#s80" transform="translate(334.54 116) scale(0.016)"/><use href="#s85" transform="translate(343.34 116) scale(0.016)"/><use href="#s74" transform="translate(349.7 116) scale(0.016)"/><use href="#s80" transform="translate(353.63 116) scale(0.016)"/><use href="#s79" transform="translate(362.83 116) scale(0.016)"/><use href="#s66" transform="translate(376.14 116) scale(0.016)"/><use href="#s79" transform="translate(385.23 116) scale(0.016)"/><use href="#s69" transform="translate(394.3 116) scale(0.016)"/><use href="#s85" transform="translate(407.89 116) scale(0.016)"/><use href="#s73" transform="translate(414.24 116) scale(0.016)"/><use href="#s83" transform="translate(423.23 116) scale(0.016)"/><use href="#s70" transform="translate(428.72 116) scale(0.016)"/><use href="#s70" transform="translate(437.81 116) scale(0.016)"/><use href="#s15" transform="translate(446.9 116) scale(0.016)"/><use href="#s75" transform="translate(450.14 116) scale(0.016)"/><use href="#s84" transform="translate(454.32 116) scale(0.016)"/><use href="#s15" transform="translate(462.82 116) scale(0.016)"/></g>
<g transform="translate(542 24)"><circle cx="15" cy="15" r="15" fill="#fff" fill-opacity=".06" stroke="#fff" stroke-opacity=".14"/><path d="M10 20 L20 10 M12.5 10 H20 V17.5" fill="none" stroke="#FF6B7A" stroke-width="2" stroke-linecap="round" stroke-linejoin="round"/></g></g>
<rect x="1" y="1" width="598" height="148" rx="19" fill="none" stroke="#fff" stroke-opacity=".08" stroke-width="1.5"/>

</svg>
